<svg width="175" height="175" viewBox="0 0 175 175" fill="none" xmlns="http://www.w3.org/2000/svg">
<g id="activity-svgrepo-com 1">
<path id="Vector" fill-rule="evenodd" clip-rule="evenodd" d="M80.1828 29.1667C83.3934 29.1554 86.2335 31.2454 87.1777 34.3139L110.273 109.373L131.771 55.6253C132.682 53.3495 134.675 51.6834 137.075 51.1906C139.477 50.6978 141.964 51.4442 143.698 53.1773L165.573 75.0524C168.42 77.8998 168.42 82.5169 165.573 85.3643C162.725 88.2117 158.108 88.2117 155.261 85.3643L141.205 71.3086L116.145 133.958C114.997 136.828 112.165 138.662 109.076 138.536C105.988 138.409 103.315 136.348 102.406 133.394L80.2966 61.5397L65.3175 111.47C64.5268 114.106 62.3195 116.072 59.6102 116.554C56.9009 117.036 54.1511 115.951 52.5 113.75L36.4584 92.3613L20.4167 113.75C18.0005 116.971 13.43 117.625 10.2084 115.208C6.98669 112.792 6.33377 108.221 8.75003 105L30.625 75.8333C32.0021 73.9973 34.1632 72.9167 36.4584 72.9167C38.7534 72.9167 40.9146 73.9973 42.2917 75.8333L55.4998 93.4442L73.2244 34.3631C74.1468 31.2879 76.9723 29.178 80.1828 29.1667Z" fill="url(#paint0_linear_14558_310)"/>
</g>
<defs>
<linearGradient id="paint0_linear_14558_310" x1="7" y1="108.5" x2="168" y2="84" gradientUnits="userSpaceOnUse">
<stop stop-color="#CD4B5F"/>
<stop offset="0.234375" stop-color="#A58CB4"/>
<stop offset="0.416667" stop-color="#F7002E"/>
<stop offset="0.671875" stop-color="#E046DB"/>
<stop offset="1" stop-color="#8787EE"/>
</linearGradient>
</defs>
</svg>
