<svg width="66" height="68" viewBox="0 0 66 68" fill="none" xmlns="http://www.w3.org/2000/svg">
<g id="analyse-mobile 1">
<path id="Vector" d="M38.0823 60.4954L38.1358 60.567H38.0823V60.4954Z" fill="#F9CD51"/>
<g id="Group" style="mix-blend-mode:multiply">
<path id="Vector_2" d="M41.8943 66.3818C31.7338 69.1322 21.3582 66.4283 15.7938 58.6409C14.8561 57.3277 14.1183 55.9526 13.5649 54.5002C19.2984 60.9123 28.7517 63.0291 38.0821 60.5723H38.1283L41.9096 66.3973L41.8943 66.3818Z" fill="#E774AD"/>
<path id="Vector_3" d="M41.8943 66.3818C31.7338 69.1322 21.3582 66.4283 15.7938 58.6409C14.8561 57.3277 14.1183 55.9526 13.5649 54.5002C19.2984 60.9123 28.7517 63.0291 38.0821 60.5723H38.1283L41.9096 66.3973L41.8943 66.3818Z" stroke="#010101" stroke-width="0.11" stroke-linecap="round" stroke-linejoin="round"/>
</g>
<g id="Group_2" style="mix-blend-mode:multiply">
<path id="Vector_4" d="M38.0823 60.4954L38.1358 60.567H38.0823V60.4954Z" fill="#F9CD51"/>
<path id="Vector_5" d="M38.0823 60.4954L38.1358 60.567H38.0823V60.4954Z" stroke="#010101" stroke-width="0.11" stroke-linecap="round" stroke-linejoin="round"/>
</g>
<path id="Vector_6" d="M52.6389 61.206C49.2573 63.6627 45.5835 65.3778 41.8945 66.3666L38.1132 60.5416C41.8483 59.5528 45.5835 57.8069 49.0421 55.3192C60.2477 47.2539 64.8745 33.8735 60.7396 23.5679C61.2315 24.124 61.662 24.6803 62.1078 25.2828C69.6857 35.9284 65.4586 51.9819 52.6544 61.1906L52.6389 61.206Z" fill="#1EABE2" stroke="#010101" stroke-width="0.11" stroke-linecap="round" stroke-linejoin="round"/>
<path id="Vector_7" d="M38.0819 60.4954V60.5572C28.7669 63.0139 19.3136 60.8971 13.5647 54.485C13.0575 53.9443 12.6117 53.3726 12.1813 52.7701C9.73726 49.309 8.52292 45.3073 8.47681 41.1356L12.873 40.3012L35.3305 36.0986L35.7763 39.9458L38.0819 60.4799V60.4954Z" fill="#E991BE" stroke="#010101" stroke-width="0.11" stroke-linecap="round" stroke-linejoin="round"/>
<path id="Vector_8" d="M49.0421 55.3501C45.5835 57.8377 41.8483 59.5683 38.113 60.5725L38.067 60.5106L35.7613 39.9766L35.3154 36.1293L37.6365 17.2021L38.4204 10.7282C46.4597 10.2492 54.0377 13.2003 58.4799 19.4887C59.4023 20.7867 60.1402 22.1772 60.7088 23.6142C64.859 33.9198 60.2324 47.3002 49.0113 55.3655L49.0421 55.3501Z" fill="#86D4F1" stroke="#010101" stroke-width="0.11" stroke-linecap="round" stroke-linejoin="round"/>
<path id="Vector_9" d="M38.1205 60.567H38.067V60.4954L38.1205 60.567Z" fill="#F9CD51" stroke="#010101" stroke-width="0.11" stroke-linecap="round" stroke-linejoin="round"/>
<path id="Vector_10" d="M8.48306 41.1353L8.44641 41.1537" stroke="#010101" stroke-width="0.11" stroke-linecap="round" stroke-linejoin="round"/>
<path id="Vector_11" d="M26.9686 8.8125C26.4922 11.9336 26.031 15.0546 25.5545 18.1602C25.1549 20.8795 24.7397 23.5989 24.3401 26.3182L15.0866 28.4659L5.80237 30.5981C6.09442 28.2806 7.1243 22.4711 11.7511 17.1405C17.5152 10.5121 24.8935 9.12152 26.9686 8.8125Z" fill="#FACE52" stroke="#010101" stroke-width="0.11" stroke-linecap="round" stroke-linejoin="round"/>
<path id="Vector_12" d="M5.80237 30.5982L15.0866 28.466L24.3401 26.3184L30.75 33.1631L12.2276 37.4276L5.80237 30.5982Z" fill="#F9CD51"/>
<path id="Vector_13" d="M26.9691 8.8125L33.3942 15.6109C32.5027 21.4512 31.6419 27.2916 30.7504 33.1476L24.3405 26.3182C24.7401 23.5989 25.1552 20.8795 25.5549 18.1602C26.0314 15.0392 26.4926 11.9181 26.9691 8.8125Z" fill="#F9CD51"/>
<path id="Vector_14" d="M5.80237 30.5982L15.0866 28.466L24.3401 26.3184L30.75 33.1631L12.2276 37.4276L5.80237 30.5982Z" fill="#F99B1C" stroke="#010101" stroke-width="0.11" stroke-linecap="round" stroke-linejoin="round"/>
<path id="Vector_15" d="M26.9691 8.8125L33.3942 15.6109C32.5027 21.4512 31.6419 27.2916 30.7504 33.1476L24.3405 26.3182C24.7401 23.5989 25.1552 20.8795 25.5549 18.1602C26.0314 15.0392 26.4926 11.9181 26.9691 8.8125Z" fill="#F6BD4A" stroke="#010101" stroke-width="0.11" stroke-linecap="round" stroke-linejoin="round"/>
<path id="Vector_16" d="M27.7373 6.35549V1.65845" stroke="#010101" stroke-width="0.11" stroke-linecap="round" stroke-linejoin="round"/>
<path id="Vector_17" d="M3.57369 32.5911L1.25262 32.8073" stroke="#010101" stroke-width="0.11" stroke-linecap="round" stroke-linejoin="round"/>
<path id="Vector_18" d="M4.29633 34.229L0.284424 37.1646" stroke="#010101" stroke-width="0.11" stroke-linecap="round" stroke-linejoin="round"/>
<path id="Vector_19" d="M29.6279 7.39087L33.148 4.31616" stroke="#010101" stroke-width="0.11" stroke-linecap="round" stroke-linejoin="round"/>
</g>
</svg>
