<svg width="64" height="66" viewBox="0 0 64 66" fill="none" xmlns="http://www.w3.org/2000/svg">
<g id="5eae62d8-1e1a-41fb-b21f-53cc428d7362 1">
<g id="Group">
<g id="Vector" style="mix-blend-mode:multiply">
<path d="M31.54 12.0451C31.81 11.5071 32.25 11.5071 32.54 12.0451L34.96 16.9172C35.1285 17.2089 35.3552 17.4616 35.6256 17.6591C35.8959 17.8566 36.204 17.9946 36.53 18.0641L42 18.8457C42.59 18.9269 42.72 19.3431 42.28 19.7592L38.35 23.5656C38.1244 23.8112 37.954 24.1036 37.8505 24.4225C37.7469 24.7414 37.7126 25.0793 37.75 25.4129L38.67 30.7621C38.78 31.3609 38.43 31.6248 37.89 31.3406L33 28.8031C32.6941 28.6672 32.3638 28.5971 32.03 28.5971C31.6961 28.5971 31.3659 28.6672 31.06 28.8031L26.18 31.3406C25.65 31.6248 25.3 31.3406 25.4 30.7621L26.32 25.4129C26.3623 25.079 26.3303 24.7398 26.2265 24.4201C26.1226 24.1005 25.9496 23.8084 25.72 23.5656L21.79 19.7897C21.36 19.3735 21.49 18.9574 22.08 18.8762L27.54 18.0946C27.866 18.025 28.174 17.8871 28.4444 17.6895C28.7148 17.492 28.9415 17.2393 29.11 16.9476L31.54 12.0451Z" fill="#FFB036"/>
</g>
<g id="Vector_2" style="mix-blend-mode:multiply">
<path d="M32 40.9832C41.9411 40.9832 50 32.8032 50 22.7128C50 12.6223 41.9411 4.44238 32 4.44238C22.0589 4.44238 14 12.6223 14 22.7128C14 32.8032 22.0589 40.9832 32 40.9832Z" fill="#FFB036"/>
</g>
<g id="Vector_3" style="mix-blend-mode:multiply">
<path d="M33.01 60.5021V47.0835C33.01 46.5846 32.6115 46.1802 32.12 46.1802H31.9C31.4085 46.1802 31.01 46.5846 31.01 47.0835V60.5021C31.01 61.001 31.4085 61.4055 31.9 61.4055H32.12C32.6115 61.4055 33.01 61.001 33.01 60.5021Z" fill="#B1CDE2"/>
</g>
<g id="Vector_4" style="mix-blend-mode:multiply">
<path d="M38.01 56.4721V44.0077C38.01 43.5256 37.625 43.1348 37.15 43.1348H36.87C36.395 43.1348 36.01 43.5256 36.01 44.0077V56.4721C36.01 56.9542 36.395 57.3451 36.87 57.3451H37.15C37.625 57.3451 38.01 56.9542 38.01 56.4721Z" fill="#B1CDE2"/>
</g>
<g id="Vector_5" style="mix-blend-mode:multiply">
<path d="M28.01 56.4721V44.0077C28.01 43.5256 27.625 43.1348 27.15 43.1348H26.87C26.395 43.1348 26.01 43.5256 26.01 44.0077V56.4721C26.01 56.9542 26.395 57.3451 26.87 57.3451H27.15C27.625 57.3451 28.01 56.9542 28.01 56.4721Z" fill="#B1CDE2"/>
</g>
</g>
</g>
</svg>
