<svg width="58" height="28" viewBox="0 0 58 28" fill="none" xmlns="http://www.w3.org/2000/svg">
<g id="EV Revolution">
<path id="Vector" d="M52.3419 23.2198C52.3429 24.1 52.093 24.9634 51.6196 25.7148H43.2651C42.8614 25.0892 42.6136 24.3812 42.5411 23.6468C42.4686 22.9124 42.5735 22.1718 42.8474 21.4834C43.1214 20.795 43.5569 20.1778 44.1195 19.6805C44.6822 19.1832 45.3566 18.8194 46.0893 18.618C46.8221 18.4166 47.5933 18.383 48.3418 18.5199C49.0903 18.6568 49.7956 18.9604 50.4021 19.4068C51.0086 19.8531 51.4996 20.43 51.8362 21.0918C52.1729 21.7535 52.346 22.4821 52.3419 23.2198Z" fill="#D0CCCC"/>
<path id="Vector_2" d="M16.0349 23.1034C16.0416 24.0342 15.7561 24.9449 15.2163 25.715H7.00628C6.58988 25.0951 6.32846 24.3897 6.2428 23.6548C6.15713 22.9198 6.24958 22.1757 6.51279 21.4815C6.77601 20.7872 7.20274 20.162 7.7591 19.6554C8.31546 19.1488 8.98611 18.7749 9.71781 18.5632C10.4495 18.3516 11.2221 18.3081 11.9741 18.4362C12.7262 18.5643 13.4371 18.8604 14.0503 19.3012C14.6636 19.7419 15.1622 20.3151 15.5067 20.9751C15.8512 21.6351 16.0321 22.3639 16.0349 23.1034Z" fill="#D0CCCC"/>
<path id="Vector_3" d="M58 18.3466V21.751C58 22.8023 57.5688 23.8106 56.8012 24.554C56.0336 25.2974 54.9925 25.7151 53.907 25.7151H52.968C53.4101 24.8123 53.6091 23.8159 53.5467 22.8186C53.4842 21.8213 53.1623 20.8555 52.6108 20.0111C52.0594 19.1667 51.2963 18.4712 50.3926 17.9892C49.489 17.5072 48.4741 17.2544 47.4425 17.2544C46.4109 17.2544 45.396 17.5072 44.4923 17.9892C43.5887 18.4712 42.8256 19.1667 42.2742 20.0111C41.7227 20.8555 41.4008 21.8213 41.3383 22.8186C41.2758 23.8159 41.4749 24.8123 41.917 25.7151H16.5886C17.0047 24.9037 17.2191 24.0094 17.2146 23.1035C17.2146 21.5388 16.5728 20.0383 15.4304 18.9319C14.2881 17.8256 12.7387 17.204 11.1232 17.204C9.50769 17.204 7.95834 17.8256 6.81599 18.9319C5.67364 20.0383 5.03188 21.5388 5.03188 23.1035C5.02732 24.0094 5.24169 24.9037 5.65787 25.7151H0.457361C0.370062 25.7001 0.287743 25.6651 0.217327 25.6129C0.146911 25.5608 0.0904556 25.493 0.0527074 25.4153C0.0149592 25.3376 -0.00297832 25.2523 0.000402975 25.1665C0.00378427 25.0807 0.0283855 24.9969 0.0721384 24.9223L0.52959 24.0828C0.610854 23.9546 0.659748 23.8097 0.672298 23.6598C0.684849 23.5099 0.660702 23.3592 0.60182 23.22C0.257209 22.3085 0.078007 21.346 0.0721384 20.3753C0.0721384 15.3852 4.76704 11.2346 10.9547 10.3485C11.7219 10.2329 12.4397 9.90959 13.0253 9.41581C15.1737 7.61499 17.4505 5.96309 19.8389 4.4724L20.3204 4.19259C24.2936 1.8795 28.8307 0.632056 33.4661 0.578304C41.8929 0.461714 50.753 1.4877 51.7401 1.62761C51.8494 1.63518 51.9536 1.67537 52.0383 1.74265C52.123 1.80993 52.184 1.90098 52.2131 2.00328C52.2421 2.10557 52.2377 2.21407 52.2004 2.31384C52.1632 2.4136 52.0949 2.49972 52.005 2.56033L50.7771 3.563C52.0223 4.55508 53.1381 5.69049 54.0996 6.94411C55.1334 8.27319 55.9758 9.73227 56.6036 11.2812H41.7243V10.6517C41.7243 10.5156 41.6685 10.3851 41.5692 10.2889C41.4699 10.1927 41.3351 10.1387 41.1947 10.1387H38.8352V7.2006C38.8352 6.85428 38.6931 6.52215 38.4403 6.27726C38.1874 6.03237 37.8445 5.8948 37.4869 5.8948H28.6508C28.4825 5.89469 28.3207 5.95781 28.1995 6.07088C28.0782 6.18395 28.007 6.33816 28.0008 6.50107V8.11001H21.8854C21.5907 8.11142 21.3073 8.21955 21.0909 8.41314C20.9396 8.56442 20.8377 8.75548 20.7978 8.96249C20.7579 9.1695 20.7818 9.38331 20.8665 9.57725C20.9512 9.7712 21.093 9.9367 21.2742 10.0531C21.4554 10.1695 21.6679 10.2317 21.8854 10.2319H28.0008V14.3359H21.8854C21.5907 14.3373 21.3073 14.4454 21.0909 14.639C20.9396 14.7903 20.8377 14.9814 20.7978 15.1884C20.7579 15.3954 20.7818 15.6092 20.8665 15.8031C20.9512 15.9971 21.093 16.1626 21.2742 16.279C21.4554 16.3954 21.6679 16.4576 21.8854 16.4578H28.0008V17.9968C28.0007 18.0784 28.0177 18.1592 28.0506 18.2343C28.0836 18.3095 28.1319 18.3774 28.1926 18.434C28.2533 18.4906 28.3251 18.5347 28.4039 18.5638C28.4826 18.5929 28.5666 18.6062 28.6508 18.6031H37.4869C37.8403 18.6031 38.1797 18.4688 38.4319 18.2289C38.684 17.989 38.8289 17.6629 38.8352 17.3206V14.4758H41.1947C41.3351 14.4758 41.4699 14.4218 41.5692 14.3256C41.6685 14.2294 41.7243 14.0989 41.7243 13.9628V13.3332H57.3259C57.7704 14.9697 57.9969 16.6545 58 18.3466Z" fill="#D0CCCC"/>
<path id="Vector_4" d="M16.0347 23.1033C16.0414 24.0341 15.7559 24.9448 15.2161 25.7149C14.775 26.3768 14.1688 26.9204 13.4534 27.2953C12.738 27.6703 11.9366 27.8646 11.1231 27.8602C10.1517 27.8602 9.20211 27.5812 8.39441 27.0585C7.5867 26.5358 6.95717 25.7929 6.58542 24.9237C6.21368 24.0545 6.11641 23.098 6.30592 22.1753C6.49544 21.2525 6.96322 20.4049 7.65012 19.7397C8.33702 19.0744 9.21218 18.6214 10.1649 18.4378C11.1177 18.2543 12.1052 18.3485 13.0027 18.7085C13.9002 19.0686 14.6673 19.6783 15.207 20.4605C15.7467 21.2428 16.0347 22.1625 16.0347 23.1033Z" fill="#D0CCCC"/>
<path id="Vector_5" d="M52.342 23.22C52.342 24.1608 52.0539 25.0805 51.5142 25.8628C50.9745 26.645 50.2075 27.2547 49.31 27.6148C48.4125 27.9748 47.4249 28.069 46.4722 27.8855C45.5194 27.7019 44.6443 27.2489 43.9574 26.5836C43.2705 25.9183 42.8027 25.0708 42.6132 24.148C42.4237 23.2253 42.5209 22.2688 42.8927 21.3996C43.2644 20.5304 43.894 19.7875 44.7017 19.2648C45.5094 18.7421 46.459 18.4631 47.4304 18.4631C48.7311 18.4693 49.9767 18.9724 50.8964 19.8632C51.8161 20.7539 52.3356 21.9603 52.342 23.22Z" fill="#D0CCCC"/>
<path id="Vector_6" d="M30.9139 16.9709L32.527 12.8203L30.5287 12.284L34.7902 7.57373L33.0326 11.5844L35.1273 12.3073L30.9139 16.9709Z" fill="white"/>
</g>
</svg>
