<svg width="106" height="106" viewBox="0 0 106 106" fill="none" xmlns="http://www.w3.org/2000/svg">
<g id="fire-minimalistic-svgrepo-com 1">
<path id="Vector" opacity="0.5" d="M53 92.75C72.5142 92.75 88.3334 77.9272 88.3334 59.6427C88.3334 43.118 79.3472 30.2017 73.1489 24.0459C71.9992 22.9041 70.085 23.4086 69.4353 24.8786C66.1361 32.3428 59.262 43.0893 50.4763 43.0893C45.039 43.8171 36.7329 39.169 43.4372 16.115C44.0409 14.0392 41.8246 12.3717 40.1318 13.7597C30.4953 21.6609 17.6667 37.5922 17.6667 59.6427C17.6667 77.9272 33.4859 92.75 53 92.75Z" fill="#1C274C"/>
<path id="Vector_2" d="M19.7717 70.9259C26.8782 60.1276 39.1067 53 53 53C66.8935 53 79.1219 60.1276 86.2284 70.9259C87.5905 67.4045 88.3334 63.6049 88.3334 59.6427C88.3334 43.118 79.3472 30.2017 73.1489 24.0459C71.9992 22.9041 70.085 23.4086 69.4353 24.8786C66.1361 32.3428 59.262 43.0893 50.4763 43.0893C45.039 43.8171 36.7329 39.1689 43.4372 16.115C44.0409 14.0392 41.8246 12.3717 40.1318 13.7597C30.4953 21.6609 17.6667 37.5922 17.6667 59.6427C17.6667 63.6049 18.4095 67.4045 19.7717 70.9259Z" fill="#1C274C"/>
</g>
</svg>
