<svg width="64" height="66" viewBox="0 0 64 66" fill="none" xmlns="http://www.w3.org/2000/svg">
<g id="0ac60dcf-7d1b-4352-9fc6-57d6b94e8af4 1">
<path id="Vector" d="M54.292 6.1333H5.708C4.48856 6.1333 3.5 7.13671 3.5 8.37447V57.6883C3.5 58.926 4.48856 59.9294 5.708 59.9294H54.292C55.5114 59.9294 56.5 58.926 56.5 57.6883V8.37447C56.5 7.13671 55.5114 6.1333 54.292 6.1333Z" fill="#CCE4FF"/>
<g id="Vector_2" style="mix-blend-mode:multiply">
<path d="M26.433 21.8663C26.433 21.2606 26.196 20.6797 25.774 20.2514C25.352 19.8231 24.7798 19.5825 24.183 19.5825C23.5863 19.5825 23.014 19.8231 22.592 20.2514C22.1701 20.6797 21.933 21.2606 21.933 21.8663V25.2514C20.1553 25.7279 18.5687 26.7563 17.395 28.1929L14.266 26.3588C13.7491 26.056 13.1348 25.9739 12.5584 26.1308C11.9819 26.2876 11.4904 26.6705 11.192 27.1952C10.8936 27.7199 10.8128 28.3433 10.9674 28.9285C11.1219 29.5136 11.4991 30.0125 12.016 30.3154L15.494 32.3535C15.405 32.8683 15.3605 33.39 15.361 33.9126C15.361 35.0058 15.554 36.0523 15.907 37.0206L12.016 39.3003C11.4991 39.6032 11.1219 40.102 10.9674 40.6872C10.8128 41.2723 10.8936 41.8958 11.192 42.4205C11.4904 42.9452 11.9819 43.328 12.5584 43.4849C13.1348 43.6418 13.7491 43.5597 14.266 43.2569L18.509 40.7701C19.505 41.6206 20.6744 42.2362 21.933 42.5728V47.7494C21.933 48.3551 22.1701 48.936 22.592 49.3643C23.014 49.7926 23.5863 50.0332 24.183 50.0332C24.7798 50.0332 25.352 49.7926 25.774 49.3643C26.196 48.936 26.433 48.3551 26.433 47.7494V42.5728C27.6916 42.2362 28.861 41.6206 29.857 40.7701L34.1 43.2569C34.6169 43.5597 35.2312 43.6418 35.8077 43.4849C36.3842 43.328 36.8756 42.9452 37.174 42.4205C37.4724 41.8958 37.5532 41.2723 37.3987 40.6872C37.2441 40.102 36.8669 39.6032 36.35 39.3003L32.459 37.0206C32.8212 36.0257 33.0061 34.9733 33.005 33.9126C33.005 33.3807 32.959 32.859 32.872 32.3535L36.35 30.3154C36.8669 30.0125 37.2441 29.5136 37.3987 28.9285C37.5532 28.3433 37.4724 27.7199 37.174 27.1952C36.8756 26.6705 36.3842 26.2876 35.8077 26.1308C35.2312 25.9739 34.6169 26.056 34.1 26.3588L30.971 28.1929C29.7973 26.7563 28.2107 25.7279 26.433 25.2514V21.8663Z" fill="#575CCE"/>
</g>
<g id="Vector_3" style="mix-blend-mode:multiply">
<path d="M24.183 39.4739C27.1195 39.4739 29.5 37.0577 29.5 34.077C29.5 31.0964 27.1195 28.6802 24.183 28.6802C21.2465 28.6802 18.866 31.0964 18.866 34.077C18.866 37.0577 21.2465 39.4739 24.183 39.4739Z" fill="#1074FF"/>
</g>
<g id="Vector_4" style="mix-blend-mode:multiply">
<path d="M50 19.3286H58C58.663 19.3286 59.2989 19.596 59.7678 20.0718C60.2366 20.5477 60.5 21.1932 60.5 21.8662C60.5 22.5392 60.2366 23.1846 59.7678 23.6605C59.2989 24.1364 58.663 24.4037 58 24.4037H50C49.337 24.4037 48.7011 24.1364 48.2322 23.6605C47.7634 23.1846 47.5 22.5392 47.5 21.8662C47.5 21.1932 47.7634 20.5477 48.2322 20.0718C48.7011 19.596 49.337 19.3286 50 19.3286ZM50 42.6741H58C58.663 42.6741 59.2989 42.9415 59.7678 43.4173C60.2366 43.8932 60.5 44.5387 60.5 45.2117C60.5 45.8847 60.2366 46.5301 59.7678 47.006C59.2989 47.4819 58.663 47.7492 58 47.7492H50C49.337 47.7492 48.7011 47.4819 48.2322 47.006C47.7634 46.5301 47.5 45.8847 47.5 45.2117C47.5 44.5387 47.7634 43.8932 48.2322 43.4173C48.7011 42.9415 49.337 42.6741 50 42.6741Z" fill="#1074FF"/>
</g>
</g>
</svg>
