<svg width="207" height="64" viewBox="0 0 207 64" fill="none" xmlns="http://www.w3.org/2000/svg">
<g id="Group">
<path id="Vector" d="M8.38185 0.325195H197.951C202.575 0.325195 206.333 3.74223 206.333 7.94682V56.2171C206.333 60.4217 202.575 63.8388 197.951 63.8388H8.38185C3.75786 63.8388 0 60.4217 0 56.2171V7.94682C0 3.74223 3.75786 0.325195 8.38185 0.325195Z" fill="white"/>
<g id="Group_2">
<path id="Vector_2" d="M25.1738 30.8116C25.1738 30.8116 10.9386 23.6346 10.1004 23.2154C9.26226 22.7962 8.42407 23.0502 8.42407 23.9267V54.8578C8.42407 55.5184 9.02477 55.7978 9.7512 55.4422C10.4776 55.0738 25.1738 47.6681 25.1738 47.6681C25.1738 47.6681 27.1715 46.6646 28.1633 46.1565C29.7699 45.3435 32.9829 43.7303 32.9829 43.7303C32.9829 43.7303 39.6185 40.3895 40.4986 39.9449C41.3787 39.5003 41.2949 38.8905 40.5545 38.5476C39.8141 38.2046 32.9969 34.7367 32.9969 34.7367L25.1738 30.8116Z" fill="url(#paint0_linear_14590_8841)"/>
<path id="Vector_3" d="M27.8 39.1954L9.08057 23.063C8.64751 23.1519 8.38208 23.4568 8.38208 23.9522V54.8198C8.38208 55.239 8.56369 55.493 8.80117 55.5819L27.8 39.1954Z" fill="url(#paint1_linear_14590_8841)"/>
<mask id="mask0_14590_8841" style="mask-type:alpha" maskUnits="userSpaceOnUse" x="8" y="23" width="20" height="33">
<g id="d">
<g id="Group_3">
<path id="Vector_4" d="M27.8 39.1954L9.08057 23.063C8.64751 23.1519 8.38208 23.4568 8.38208 23.9522V54.8198C8.38208 55.239 8.56369 55.493 8.80117 55.5819L27.8 39.1954Z" fill="white"/>
</g>
</g>
</mask>
<g mask="url(#mask0_14590_8841)">
<g id="Group_4">
<mask id="mask1_14590_8841" style="mask-type:alpha" maskUnits="userSpaceOnUse" x="8" y="39" width="26" height="17">
<g id="g">
<g id="Group_5">
<path id="Vector_5" d="M9.56741 55.4934L20.394 50.082C23.0622 48.7355 25.1716 47.6685 25.1716 47.6685L33.0366 43.8196L27.7979 39.1958L8.79907 55.5823C9.00862 55.6458 9.3858 55.6077 9.67917 55.4807" fill="white"/>
</g>
</g>
</mask>
<g mask="url(#mask1_14590_8841)">
<path id="Vector_6" d="M25.1432 30.8117C25.1153 30.8752 10.8801 23.6855 10.0559 23.3171C9.2177 22.8344 8.37952 23.1012 8.37952 23.9523V54.9469C8.37952 55.6328 8.98022 55.9123 9.63679 55.582C10.4331 55.1755 25.1153 47.7699 25.1432 47.7063L32.9663 43.7685C32.9244 43.8193 39.5461 40.4785 40.3703 40.0847C41.3202 39.5893 41.2224 38.9796 40.51 38.6874C39.7416 38.2809 32.9244 34.8131 32.9663 34.7496L25.1432 30.8117Z" fill="url(#paint2_linear_14590_8841)"/>
</g>
</g>
<g id="Group_6">
<path id="Vector_7" d="M10.07 23.2028C9.70682 23.0377 9.35757 22.9869 9.06421 23.0504L27.7977 39.2082L32.9804 34.7496L25.1713 30.8117C25.1713 30.8117 17.8093 27.1026 13.3669 24.8669L10.07 23.2028Z" fill="url(#paint3_linear_14590_8841)"/>
<mask id="mask2_14590_8841" style="mask-type:alpha" maskUnits="userSpaceOnUse" x="9" y="23" width="24" height="17">
<g id="j">
<g id="Group_7">
<path id="Vector_8" d="M10.07 23.2028C9.70682 23.0377 9.35757 22.9869 9.06421 23.0504L27.7977 39.2082L32.9804 34.7496L25.1713 30.8117C25.1713 30.8117 17.8093 27.1026 13.3669 24.8669L10.07 23.2028Z" fill="white"/>
</g>
</g>
</mask>
<g mask="url(#mask2_14590_8841)">
</g>
</g>
</g>
</g>
<g id="Group_8">
<path id="Vector_9" d="M141.319 44.6451L139.768 45.9788C139.405 46.1567 139.056 46.3726 138.706 46.5124C137.631 46.957 136.541 47.0713 135.563 47.0713C134.53 47.0713 132.909 47.0078 131.261 45.9153C128.97 44.4418 127.964 41.8886 127.964 39.6783C127.964 35.0926 132.043 32.8442 135.382 32.8442C136.541 32.8442 137.743 33.111 138.706 33.6699C140.327 34.648 140.746 35.9183 140.97 36.6042L133.37 39.4115L130.883 39.5894C131.694 43.3494 134.474 45.5342 137.547 45.5342C139.084 45.5342 140.215 45.077 141.263 44.607C141.263 44.607 141.472 44.5053 141.319 44.6451ZM136.681 37.0996C137.296 36.8964 137.603 36.7186 137.603 36.2994C137.603 35.1053 136.164 33.7334 134.432 33.7334C133.16 33.7334 130.758 34.6607 130.758 37.8745C130.758 38.3826 130.828 38.9161 130.855 39.4496L136.681 37.0996Z" fill="black"/>
<path id="Vector_10" d="M125.448 44.4796C125.448 45.6228 125.672 45.8007 126.734 45.8896C127.292 45.9531 127.837 45.9785 128.382 46.0293L127.195 46.6772H121.509C122.249 45.788 122.389 45.6991 122.389 45.1147V44.4542L122.375 26.9244H119.86L122.277 25.8574H126.887C125.881 26.3909 125.588 26.7085 125.462 27.7374L125.448 44.4796Z" fill="black"/>
<path id="Vector_11" d="M116.634 34.2923C117.374 34.8512 118.911 36.0325 118.911 38.2682C118.911 40.4531 117.57 41.482 116.215 42.4601C115.796 42.8412 115.307 43.2604 115.307 43.9082C115.307 44.5561 115.796 44.9117 116.145 45.1785L117.304 46.0042C118.715 47.0966 120.001 48.1001 120.001 50.1325C120.001 52.9017 117.067 55.709 111.535 55.709C106.869 55.709 104.62 53.6766 104.62 51.4917C104.62 50.4247 105.193 48.9258 107.107 47.8969C109.104 46.779 111.8 46.6266 113.253 46.5377C112.806 46.0042 112.289 45.4452 112.289 44.5306C112.289 44.0352 112.457 43.7304 112.611 43.3747C112.261 43.4001 111.898 43.4382 111.577 43.4382C108.168 43.4382 106.24 41.1009 106.24 38.8017C106.24 37.4425 106.911 35.9436 108.308 34.8512C110.138 33.4666 112.331 33.2252 114.063 33.2252H120.699L118.632 34.2923H116.634ZM114.371 47.3634C114.105 47.3252 113.952 47.3252 113.63 47.3252C113.337 47.3252 111.577 47.3888 110.222 47.8079C109.509 48.0493 107.428 48.7734 107.428 50.9074C107.428 53.0415 109.663 54.5785 113.141 54.5785C116.257 54.5785 117.905 53.1939 117.905 51.3393C117.905 49.7896 116.829 48.9766 114.371 47.3634ZM115.279 41.6725C116.019 40.9993 116.089 40.0593 116.089 39.5258C116.089 37.4044 114.72 34.1144 112.052 34.1144C111.228 34.1144 110.32 34.4955 109.803 35.0925C109.258 35.7023 109.104 36.5025 109.104 37.2647C109.104 39.2336 110.361 42.4982 113.114 42.4982C113.91 42.4982 114.776 42.1425 115.279 41.6725ZM96.5733 47.0712C91.4464 47.0712 88.7084 43.3874 88.7084 40.0593C88.7084 36.1723 92.1589 32.8442 97.0623 32.8442C101.798 32.8442 104.774 36.2612 104.774 39.856C104.774 43.362 101.84 47.0712 96.5733 47.0712ZM100.583 44.6704C101.365 43.7177 101.561 42.5236 101.561 41.3677C101.561 38.7382 100.205 33.7333 96.1822 33.7333C95.1205 33.7333 94.0448 34.1144 93.2625 34.7496C92.0052 35.7912 91.7677 37.0996 91.7677 38.3825C91.7677 41.3296 93.3463 46.182 97.2718 46.182C98.557 46.182 99.8423 45.6231 100.583 44.6704ZM79.3905 47.0712C74.2636 47.0712 71.5256 43.3874 71.5256 40.0593C71.5256 36.1723 74.9761 32.8442 79.8795 32.8442C84.6152 32.8442 87.5908 36.2612 87.5908 39.856C87.5908 43.362 84.6571 47.0712 79.3905 47.0712ZM83.3999 44.6704C84.1822 43.7177 84.3777 42.5236 84.3777 41.3677C84.3777 38.7382 83.0087 33.7333 78.9994 33.7333C77.9237 33.7333 76.862 34.1144 76.0797 34.7496C74.8085 35.7912 74.5849 37.0996 74.5849 38.3825C74.5849 41.3296 76.1775 46.182 80.089 46.182C81.3742 46.182 82.6595 45.6231 83.3999 44.6704ZM69.4022 46.1947L65.0576 47.1093C63.2974 47.3634 61.7188 47.592 60.0424 47.592C51.6606 47.5793 48.4755 41.9393 48.4755 37.5187C48.4755 32.1328 53.0017 27.1279 60.7409 27.1279C62.3754 27.1279 63.954 27.3439 65.3928 27.7123C67.6699 28.2966 68.7316 29.0206 69.4022 29.4398L66.8736 31.6374L65.8119 31.8533L66.5663 30.7482C65.5325 29.8336 63.6466 28.1314 60.0704 28.1314C55.2787 28.1314 51.6606 31.4596 51.6606 36.3247C51.6606 41.5455 55.7816 46.4615 62.4033 46.4615C64.3451 46.4615 65.3509 46.1058 66.259 45.7755V41.2915L61.6769 41.5201L64.1076 40.326H70.5477L69.7654 41.0247C69.5558 41.1898 69.5279 41.2406 69.458 41.4693C69.4301 41.7233 69.4022 42.5236 69.4022 42.8158V46.1947ZM150.692 44.772V52.2793H149.058V33.1871H150.692V35.3593C151.754 33.9493 153.71 32.8442 155.959 32.8442C160.01 32.8442 162.748 35.6514 162.748 40.0847C162.748 44.4925 160.024 47.3506 155.959 47.3506C153.835 47.3506 151.922 46.3471 150.692 44.772ZM161.072 40.199C161.072 36.8201 159.158 34.2414 155.749 34.2414C153.64 34.2414 151.614 35.7658 150.734 37.0996V43.2731C151.614 44.6069 153.64 46.182 155.749 46.182C159.158 46.182 161.072 43.5779 161.072 40.199ZM164.983 27.8901H166.66V47.0712H164.983V27.8901ZM184.89 50.9582C185.239 51.0979 185.84 51.1869 186.217 51.1869C187.223 51.1869 187.908 50.8185 188.536 49.4974L189.724 47.0331L183.284 33.0982H185.114L190.632 45.1785L196.108 33.0982H197.952L190.101 49.9547C189.291 51.695 188.005 52.5334 186.245 52.5334C185.714 52.5334 185.016 52.4444 184.611 52.3301L184.89 50.9582ZM180.266 47.0585C180.154 46.5758 180.071 46.1566 180.015 45.8009C179.959 45.4452 179.931 45.0896 179.931 44.7212C179.372 45.4706 178.576 46.1058 177.542 46.6012C176.522 47.0966 175.544 47.3379 174.217 47.3379C172.611 47.3379 171.367 46.9823 170.487 46.2455C169.607 45.5215 169.16 44.5306 169.16 43.2858C169.16 42.0409 169.803 41.0247 171.088 40.2498C172.373 39.475 174.036 39.0812 176.089 39.0812H179.917V37.3536C179.917 36.3628 179.54 35.5752 178.799 35.0163C178.059 34.4447 177.011 34.1652 175.656 34.1652C174.413 34.1652 173.407 34.432 172.639 34.9401C171.884 35.4609 171.493 36.1087 171.493 36.8836H169.817L169.789 36.8074C169.733 35.7531 170.25 34.8385 171.381 34.0382C172.499 33.2379 173.952 32.8442 175.754 32.8442C177.542 32.8442 178.995 33.2379 180.085 34.0255C181.174 34.8004 181.719 35.9309 181.719 37.3917V44.2512C181.719 44.7466 181.747 45.2166 181.817 45.6866C181.887 46.1566 181.998 46.6139 182.138 47.0585H180.266ZM174.427 46.055C175.824 46.055 176.83 45.7628 177.849 45.2039C178.869 44.645 179.554 43.9082 179.917 43.019V40.3388H176.061C174.594 40.3388 173.379 40.6309 172.415 41.2406C171.451 41.8377 170.976 42.5617 170.976 43.4128C170.976 44.2131 171.284 44.8482 171.898 45.3309C172.527 45.8136 173.365 46.055 174.427 46.055Z" fill="black"/>
</g>
<g id="Group_9">
<path id="Vector_12" d="M47.9165 14.9719C47.9165 12.2408 50.3193 10.4751 53.3088 10.4751C55.3065 10.4751 56.6197 11.2881 57.4439 12.2789L55.9771 12.9902C55.4183 12.3424 54.4544 11.8343 53.3088 11.8343C51.2832 11.8343 49.7605 13.1427 49.7605 14.9719C49.7745 16.7883 51.2832 18.1094 53.3088 18.1094C54.3566 18.1094 55.2786 17.7029 55.7396 17.3219V15.9881H52.6662V14.6416H57.5277V17.8808C56.5219 18.8335 55.083 19.4686 53.3088 19.4686C50.3193 19.4813 47.9165 17.7029 47.9165 14.9719ZM59.8606 19.3543V10.6148H66.9992V11.9613H61.6907V14.2097H66.8874V15.5689H61.6907V18.0078H66.9992V19.3543H59.8606ZM71.8467 19.3543V11.9613H68.7454V10.6148H76.7501V11.9613H73.6488V19.3543H71.8467ZM83.1622 10.6148H84.9084V19.3543H83.1622V10.6148ZM89.9096 19.3543V11.9613H86.8083V10.6148H94.813V11.9613H91.7117V19.3543H89.9096ZM100.792 14.9846C100.792 12.3932 102.985 10.4878 106.115 10.4878C109.216 10.4878 111.423 12.3932 111.423 14.9846C111.423 17.5759 109.202 19.4813 106.115 19.4813C102.985 19.4813 100.792 17.5759 100.792 14.9846ZM109.523 14.9083C109.523 13.13 108.182 11.7962 106.101 11.7962C104.005 11.7962 102.678 13.13 102.678 14.9083C102.678 16.674 104.005 18.0205 106.101 18.0205C108.182 18.0205 109.523 16.6867 109.523 14.9083ZM120.601 19.3543L115.251 13.1046V19.3543H113.449V10.6148H115.293L120.531 16.674V10.6148H122.333V19.3543H120.601Z" fill="black"/>
</g>
</g>
<defs>
<linearGradient id="paint0_linear_14590_8841" x1="16.1459" y1="33.3027" x2="26.5245" y2="50.0524" gradientUnits="userSpaceOnUse">
<stop stop-color="#FF177B"/>
<stop offset="1" stop-color="#FFEC73"/>
</linearGradient>
<linearGradient id="paint1_linear_14590_8841" x1="21.1953" y1="11.1397" x2="3.00527" y2="53.6206" gradientUnits="userSpaceOnUse">
<stop stop-color="#064AA2"/>
<stop offset="1" stop-color="#63FFD4"/>
</linearGradient>
<linearGradient id="paint2_linear_14590_8841" x1="27.6455" y1="29.6115" x2="2.79245" y2="45.9621" gradientUnits="userSpaceOnUse">
<stop stop-color="#FF4521"/>
<stop offset="1" stop-color="#8A33DB"/>
</linearGradient>
<linearGradient id="paint3_linear_14590_8841" x1="12.6064" y1="17.873" x2="20.5468" y2="40.5712" gradientUnits="userSpaceOnUse">
<stop stop-color="#00A3B5"/>
<stop offset="1" stop-color="#D6FFA1"/>
</linearGradient>
</defs>
</svg>
