<svg width="64" height="65" viewBox="0 0 64 65" fill="none" xmlns="http://www.w3.org/2000/svg">
<g id="0b702430-3200-41fa-aac5-9631b2745061 1">
<path id="Vector" d="M25.39 4.74015L10.29 19.6204C10.0661 19.8394 9.88925 20.103 9.77051 20.3947C9.65177 20.6864 9.59372 20.9999 9.60001 21.3154V58.5769C9.6006 58.8839 9.66198 59.1877 9.78051 59.4702C9.89904 59.7526 10.0723 60.0081 10.29 60.2212C10.7381 60.6601 11.3373 60.9041 11.96 60.9013H47.24C47.8627 60.9041 48.4619 60.6601 48.91 60.2212C49.1277 60.0081 49.301 59.7526 49.4195 59.4702C49.538 59.1877 49.5994 58.8839 49.6 58.5769V6.38448C49.5994 6.07745 49.538 5.77367 49.4195 5.4912C49.301 5.20872 49.1277 4.95331 48.91 4.74015C48.4619 4.30129 47.8627 4.05729 47.24 4.06008H27.07C26.759 4.06008 26.45 4.11895 26.16 4.23264C25.8747 4.35207 25.6136 4.52414 25.39 4.74015Z" fill="#CCE4FF"/>
<path id="Vector_2" d="M46.501 50.7513C49.5085 50.7516 52.423 49.6933 54.7477 47.7567C57.0725 45.8201 58.6637 43.1252 59.25 40.1311C59.6135 38.2718 59.5779 36.3548 59.1458 34.5107C58.7137 32.6665 57.8953 30.9385 56.7461 29.4443C55.5969 27.9501 54.144 26.7248 52.4864 25.8518C50.8287 24.9788 49.0052 24.4785 47.1399 24.3852C45.2747 24.2918 43.4115 24.6074 41.6772 25.3107C39.943 26.0139 38.3784 27.0881 37.0899 28.4603C35.8014 29.8324 34.8194 31.4703 34.2106 33.2623C33.6018 35.0543 33.3806 36.9585 33.562 38.8451C33.8562 41.883 35.1786 44.7235 37.304 46.883C39.7435 49.3586 43.0515 50.7499 46.501 50.7513Z" fill="#FEA442"/>
<g id="Vector_3" style="mix-blend-mode:multiply">
<path d="M24.91 5.21729V17.1539C24.9079 17.4154 24.8546 17.6739 24.7533 17.9143C24.6521 18.1548 24.5048 18.3724 24.32 18.5547C23.938 18.9272 23.43 19.1383 22.9 19.1434H10.78L24.91 5.21729Z" fill="#0D68FF"/>
</g>
<g id="Vector_4" style="mix-blend-mode:multiply">
<path d="M26.5 29.9429C26.5 30.3467 26.342 30.734 26.0607 31.0195C25.7794 31.3051 25.3978 31.4655 25 31.4655H6C5.60218 31.4655 5.22064 31.3051 4.93934 31.0195C4.65804 30.734 4.5 30.3467 4.5 29.9429C4.5 29.5391 4.65804 29.1519 4.93934 28.8664C5.22064 28.5808 5.60218 28.4204 6 28.4204H25C25.3978 28.4204 25.7794 28.5808 26.0607 28.8664C26.342 29.1519 26.5 29.5391 26.5 29.9429ZM20.5 37.0481C20.5 37.4519 20.342 37.8392 20.0607 38.1247C19.7794 38.4102 19.3978 38.5706 19 38.5706H6C5.60218 38.5706 5.22064 38.4102 4.93934 38.1247C4.65804 37.8392 4.5 37.4519 4.5 37.0481C4.5 36.6443 4.65804 36.257 4.93934 35.9715C5.22064 35.686 5.60218 35.5256 6 35.5256H19C19.3978 35.5256 19.7794 35.686 20.0607 35.9715C20.342 36.257 20.5 36.6443 20.5 37.0481Z" fill="#4652CE"/>
</g>
<g id="Vector_5" style="mix-blend-mode:multiply">
<path d="M52.822 30.5186H41.3V32.3507H44.933C46.626 32.3507 47.696 33.187 47.986 34.5675H41.3V36.1732H47.986C47.696 37.5537 46.604 38.3677 44.933 38.3677H41.3V40.1998H45.155L48.387 46.3529H50.727L47.25 39.9055C48.81 39.3401 49.858 37.9607 50.103 36.1732H52.822V34.5675H50.103C49.969 33.5951 49.59 32.78 48.922 32.1243H52.822V30.5186Z" fill="#FEA442"/>
</g>
</g>
</svg>
