<svg width="55" height="80" viewBox="0 0 55 80" fill="none" xmlns="http://www.w3.org/2000/svg">
<g id="invest-mobile 1">
<path id="Vector" d="M45.1192 5.67861C45.4641 4.6583 45.8093 3.63798 46.1543 2.61768C46.4418 3.59949 46.7485 4.58129 47.036 5.5631C47.5919 5.92888 48.1478 6.27541 48.7036 6.64118C48.2244 6.98769 47.726 7.33421 47.2277 7.68074C46.8443 8.7203 46.4801 9.75987 46.0968 10.7802C45.79 9.72137 45.4833 8.64329 45.1575 7.58448C44.5441 7.29571 43.9116 6.9877 43.2983 6.69893C43.9116 6.3524 44.5058 6.00589 45.1192 5.65935V5.67861Z" fill="white" stroke="#121D29" stroke-width="0.11" stroke-linecap="round" stroke-linejoin="round"/>
<path id="Vector_2" d="M15.5427 2.61786C13.07 3.59967 11.0765 5.50554 9.56218 8.31622C8.12457 11.0306 7.2045 14.4381 6.84028 18.4616C6.47609 22.4851 6.70612 26.9321 7.49201 31.6487C8.31624 36.5384 9.71553 41.5437 11.6515 46.4721C13.5875 51.4197 15.9644 56.0207 18.6863 60.1597C21.044 63.7405 23.5742 66.8399 26.2193 69.4003C26.4493 69.6121 26.6602 69.8237 26.8711 70.0163C26.9669 70.0932 27.0435 70.1896 27.1395 70.2666C30.1296 72.9618 33.1199 74.8483 36.0144 75.8302C39.0045 76.8504 41.7839 76.8698 44.2566 75.8879C46.7294 74.906 48.7228 73.0003 50.2372 70.2089C51.6748 67.4944 52.5948 64.087 52.959 60.0633C53.3233 56.0399 53.0932 51.6121 52.3073 46.8763C51.4831 41.9866 50.0838 37.0005 48.1478 32.0529C46.2118 27.1054 43.8542 22.5043 41.1131 18.3654C38.4869 14.3611 35.6309 10.9729 32.6406 8.25847C32.564 8.18146 32.4682 8.10445 32.3723 8.02746C32.1807 7.85419 31.989 7.70019 31.8166 7.52693C29.0946 5.21678 26.411 3.59967 23.7659 2.69487C20.7756 1.67456 17.9962 1.65531 15.5427 2.61786Z" fill="#FACE52"/>
<path id="Vector_3" d="M19.9324 13.8407C12.9552 16.6129 11.7476 30.2619 17.2297 44.2768C19.4341 49.8789 22.3668 54.7109 25.568 58.3109C30.3408 63.7014 35.6696 66.3387 39.8674 64.6831C46.8446 61.9109 48.0521 48.2812 42.5508 34.2661C39.254 25.8534 34.2703 19.1926 29.3248 15.8043C26.0087 13.5519 22.7309 12.7434 19.9324 13.8407Z" fill="#FACE52" stroke="#121D29" stroke-width="0.11" stroke-linecap="round" stroke-linejoin="round"/>
<path id="Vector_4" d="M25.0311 30.9935L23.7852 31.4941C24.9928 31.0127 26.047 31.3979 26.9096 32.6683L28.1554 32.168C27.2929 30.9165 26.2386 30.5316 25.0311 30.9935Z" fill="#F9A11B" stroke="#121D29" stroke-width="0.11" stroke-linecap="round" stroke-linejoin="round"/>
<path id="Vector_5" d="M29.4589 35.1521L28.2131 35.6527C28.7498 37.7511 28.2131 39.2142 26.7178 39.811L26.9862 39.6955L27.9447 39.3104C29.4589 38.7136 29.9765 37.2506 29.4398 35.1521H29.4589Z" fill="#F9A11B" stroke="#121D29" stroke-width="0.11" stroke-linecap="round" stroke-linejoin="round"/>
<path id="Vector_6" d="M27.0056 39.715L26.7372 39.8307L25.7789 40.2156C25.6255 40.2733 25.6063 40.6008 25.7214 40.9088L26.6414 43.2573C26.6989 43.3922 26.7757 43.5461 26.8715 43.623C29.9576 46.684 32.5069 49.4369 35.2863 52.4402C35.4012 52.5748 35.4972 52.6133 35.593 52.5749L36.839 52.0745C36.839 52.0745 36.6473 52.0745 36.5515 51.9204C33.7721 48.9171 31.2226 46.1642 28.1365 43.1032C28.0407 43.007 27.9641 42.8724 27.9066 42.7375L26.9864 40.3889C26.8715 40.0809 26.8715 39.7537 27.0441 39.6958L27.0056 39.715Z" fill="#F9A11B" stroke="#121D29" stroke-width="0.11" stroke-linecap="round" stroke-linejoin="round"/>
<path id="Vector_7" d="M24.5903 33.5732L23.3443 34.0738C23.191 34.1315 23.1717 34.4395 23.2868 34.7668L24.0151 36.6534C24.1493 36.9807 24.3602 37.1925 24.5135 37.1346L25.7595 36.6342C25.6061 36.6919 25.3952 36.4801 25.2611 36.1529L24.5326 34.2662C24.3986 33.939 24.4177 33.631 24.5903 33.5732Z" fill="#F9A11B" stroke="#121D29" stroke-width="0.11" stroke-linecap="round" stroke-linejoin="round"/>
<path id="Vector_8" d="M22.3664 27.8557L21.1206 28.3561C20.9672 28.414 20.948 28.722 21.0821 29.0492L22.0406 31.4942C22.1555 31.8022 22.3856 32.0332 22.539 31.9753L23.7849 31.475C23.6316 31.5327 23.4016 31.3016 23.2864 30.9936L22.3281 28.5487C22.1938 28.2214 22.213 27.9134 22.3664 27.8557Z" fill="#F9A11B" stroke="#121D29" stroke-width="0.11" stroke-linecap="round" stroke-linejoin="round"/>
<path id="Vector_9" d="M29.5162 25.0258L22.3472 27.8557C22.1938 27.9136 22.1746 28.2216 22.3089 28.5489L23.2673 30.9938C23.3824 31.3018 23.6124 31.5327 23.7657 31.475L25.0117 30.9744C26.2192 30.4933 27.2735 30.8782 28.1361 32.1489L26.89 32.6493L24.5708 33.5542C24.4173 33.6119 24.3982 33.9199 24.5133 34.2472L25.2416 36.1338C25.3758 36.4611 25.5867 36.6729 25.74 36.6152L29.4202 35.1712C29.957 37.2696 29.4202 38.7327 27.9252 39.3294L26.9669 39.7146C26.8134 39.7723 26.7943 40.0995 26.9092 40.4075L27.8294 42.7563C27.8869 42.891 27.9635 43.0451 28.0595 43.122C31.1455 46.183 33.6949 48.9359 36.4743 51.939C36.5892 52.0738 36.685 52.1123 36.7618 52.0931L38.4294 51.4192C38.5444 51.3807 38.5827 51.2075 38.5444 50.9765C38.506 50.7454 38.3911 50.4952 38.2568 50.3605C35.6309 47.4727 32.8706 44.4889 30.4362 42.0632C32.1996 40.7927 32.564 38.0013 31.433 34.3628L32.8706 33.7853C33.0239 33.7273 33.043 33.4193 32.9281 33.0921L32.1996 31.2054C32.0655 30.8782 31.8546 30.6664 31.7014 30.7243L30.2253 31.3018C29.7463 30.3392 29.2095 29.5306 28.6345 28.8761L30.6471 28.0868C30.8004 28.0291 30.8195 27.7211 30.6854 27.3938L29.957 25.5072C29.8229 25.1799 29.612 24.9681 29.4587 25.0258H29.5162Z" fill="white" stroke="#121D29" stroke-width="0.11" stroke-linecap="round" stroke-linejoin="round"/>
<path id="Vector_10" d="M27.1588 70.2665C26.5263 69.7082 25.9129 69.092 25.2996 68.476C24.2453 67.3979 23.191 66.2236 22.175 64.9724C21.3508 63.952 20.5266 62.8547 19.7217 61.7189C19.3573 61.2183 19.0315 60.6985 18.6865 60.1789C18.3223 59.6206 17.9773 59.0623 17.6131 58.4848C16.9805 57.4452 16.348 56.3671 15.7538 55.2697C15.1595 54.1724 14.5845 53.0558 14.0286 51.92C13.4536 50.7265 12.9169 49.5135 12.3801 48.2623C12.131 47.6655 11.9009 47.088 11.6709 46.4913C11.3642 45.7019 11.0575 44.8933 10.77 44.104C10.1758 42.4676 9.65827 40.8313 9.19822 39.1951C8.489 36.6732 7.91395 34.1705 7.51143 31.6678C7.51143 31.6293 7.51143 31.5907 7.51143 31.5522C6.9172 28.0293 6.64886 24.6604 6.70636 21.5031C6.72551 20.4636 6.78304 19.4625 6.85969 18.4807C6.95555 17.2871 7.12806 16.132 7.31974 15.054C7.54976 13.8027 7.85645 12.6283 8.22064 11.531C8.52733 10.607 8.87237 9.74066 9.25572 8.93211C9.35157 8.72034 9.46658 8.50858 9.56241 8.31607C9.84995 7.79628 10.1375 7.29574 10.4442 6.85298C10.8659 6.25618 11.2876 5.6979 11.7668 5.19736C12.246 4.69685 12.7443 4.25407 13.2811 3.86904C13.8369 3.46475 14.4311 3.11824 15.0637 2.82948C15.217 2.75247 15.3704 2.69472 15.5237 2.63696L9.21739 5.13961C9.06404 5.19736 8.9107 5.27437 8.75735 5.33212C8.12481 5.62091 7.54976 5.96742 6.9747 6.37169C6.438 6.75672 5.93962 7.1995 5.46042 7.70003C4.98122 8.20056 4.54035 8.73959 4.1378 9.33637C3.83111 9.79841 3.52444 10.2989 3.25608 10.7995C3.16022 10.992 3.04522 11.2037 2.94938 11.4155C2.54684 12.224 2.22099 13.0904 1.9143 14.0144C1.5501 15.1117 1.24341 16.2861 1.0134 17.5374C0.802545 18.6155 0.649195 19.7512 0.553355 20.964C0.457515 21.9459 0.419174 22.9663 0.400006 23.9865C0.342502 27.1438 0.61086 30.5128 1.20507 34.0356C1.20507 34.0741 1.20507 34.1126 1.20507 34.1513C1.62678 36.6345 2.18267 39.1564 2.89188 41.6783C3.35191 43.3147 3.88863 44.9511 4.46367 46.5874C4.7512 47.396 5.03872 48.1853 5.36457 48.9747C5.5946 49.5714 5.84379 50.1682 6.0738 50.7457C6.59135 51.997 7.14723 53.2099 7.72227 54.4034C8.27815 55.5393 8.83402 56.6558 9.44741 57.7532C10.0608 58.8505 10.6742 59.9286 11.3067 60.968C11.6518 61.5263 12.0159 62.1038 12.3801 62.6621C12.7252 63.1819 13.0702 63.7017 13.4152 64.2023C14.2203 65.3381 15.0254 66.4162 15.8688 67.4558C16.8847 68.7071 17.9198 69.8813 18.9932 70.9594C19.6065 71.5947 20.2199 72.1914 20.8526 72.7497C23.8427 75.445 26.833 77.3124 29.7275 78.2941C32.7176 79.3145 35.497 79.3337 37.9506 78.3713L44.257 75.8686C41.7842 76.8503 39.024 76.8311 36.0337 75.7914C33.1394 74.8097 30.1491 72.9423 27.1588 70.2471V70.2665Z" fill="#F99B1C" stroke="#121D29" stroke-width="0.11" stroke-linecap="round" stroke-linejoin="round"/>
<path id="Vector_11" d="M15.5427 2.6177C18.0154 1.63589 20.7756 1.6744 23.7659 2.69471C26.6602 3.67652 29.6505 5.54389 32.6406 8.23905C35.6309 10.9342 38.4869 14.3417 41.1131 18.3459C43.835 22.485 46.1926 27.1052 48.1286 32.0335C50.0646 36.981 51.4639 41.9671 52.2882 46.857C53.0741 51.5928 53.3041 56.0206 52.9398 60.044C52.5757 64.0674 51.6556 67.4749 50.2181 70.1894C48.7228 73 46.7102 74.9059 44.2566 75.8684C41.7839 76.8503 39.0237 76.8311 36.0336 75.7914C33.139 74.8097 30.1489 72.9423 27.1586 70.2471C24.1684 67.552 21.3123 64.1444 18.6863 60.1402C15.9644 56.0012 13.6067 51.4002 11.6515 46.4526C9.71553 41.5244 8.31624 36.5191 7.49201 31.6292C6.70612 26.8934 6.47609 22.4657 6.84028 18.4422C7.2045 14.4187 8.1054 10.992 9.56218 8.2968C11.0573 5.48614 13.07 3.58027 15.5427 2.59844H15.5235L15.5427 2.6177Z" stroke="#121D29" stroke-width="0.11" stroke-linecap="round" stroke-linejoin="round"/>
<path id="Vector_12" d="M6.57214 59.6394C7.28138 57.5219 7.99059 55.4041 8.71898 53.2866C9.33236 55.3464 9.94575 57.387 10.5591 59.4278C11.7092 60.1784 12.8785 60.9293 14.0286 61.6801C13.0127 62.3923 11.9776 63.1047 10.9617 63.8361C10.1758 65.9923 9.38987 68.1485 8.62315 70.2853C7.97142 68.0714 7.33888 65.8577 6.68715 63.6245C5.40288 63.0083 4.09945 62.3923 2.81519 61.7763C4.08028 61.064 5.34538 60.3518 6.59131 59.6201L6.57214 59.6394Z" fill="white" stroke="#121D29" stroke-width="0.11" stroke-linecap="round" stroke-linejoin="round"/>
</g>
</svg>
