<svg width="15" height="16" viewBox="0 0 15 16" fill="none" xmlns="http://www.w3.org/2000/svg">
<g id="Isolation_Mode" clip-path="url(#clip0_14597_9193)">
<path id="Vector" d="M3.07972 13.3322C3.09998 13.0073 3.11348 12.6894 3.1405 12.3715C3.15401 12.2056 3.18102 12.0397 3.20128 11.8738C3.20128 11.8393 3.20804 11.8116 3.20804 11.7771C3.20804 11.4453 3.20804 11.1136 3.26882 10.7818C3.28233 10.6782 3.26882 10.5745 3.27557 10.4708C3.28908 10.2842 3.30934 10.0976 3.32285 9.90407C3.32285 9.82805 3.33636 9.75202 3.34311 9.68291C3.34986 9.48248 3.3296 9.27513 3.37013 9.08161C3.44442 8.72913 3.39039 8.36973 3.43766 8.01034C3.47818 7.73388 3.47143 7.45742 3.49169 7.18096C3.51871 6.80083 3.54572 6.42762 3.57274 6.04749C3.593 5.76412 3.60651 5.47384 3.62677 5.19047C3.65378 4.81725 3.6808 4.45094 3.70781 4.07772C3.72807 3.78053 3.74158 3.48334 3.76184 3.18615C3.76184 3.11012 3.7821 3.0341 3.78886 2.93734C3.70106 2.99263 3.62001 3.0341 3.54572 3.08939C3.09322 3.41423 2.74878 3.82891 2.51916 4.34036C2.36382 4.67211 2.1477 4.94166 1.80326 5.07988C1.66819 5.13518 1.52636 5.16282 1.38453 5.17664C1.19543 5.19047 1.01308 5.19047 0.830729 5.11444C0.486289 4.9693 0.182372 4.78269 0.0540516 4.40947C2.18558e-05 4.25742 -0.026993 4.09846 0.0135293 3.93258C0.067559 3.68377 0.162111 3.44878 0.297185 3.22762C0.459274 2.96498 0.594349 2.68852 0.776699 2.43971C1.38453 1.62416 2.12744 0.967574 3.04595 0.532152C3.2283 0.449215 3.41065 0.359366 3.60651 0.297163C3.86315 0.214226 4.11979 0.1382 4.38318 0.0829083C4.66684 0.0207053 4.95725 -0.0138519 5.24766 0.00688242C5.48404 0.0207053 5.72717 0.00688242 5.96355 0.00688242C6.0581 0.00688242 6.1459 0.0345282 6.24045 0.0483511C6.29448 0.0552626 6.34851 0.0690854 6.40254 0.0759969C6.42956 0.0759969 6.47008 0.0759969 6.49034 0.0898198C6.57814 0.1382 6.67269 0.1382 6.774 0.145111C6.85504 0.145111 6.92933 0.193492 7.01038 0.221137C7.73978 0.469949 8.4084 0.836256 8.99597 1.3477C9.4147 1.72092 9.80641 2.12179 10.0563 2.64014C10.1779 2.89587 10.2792 3.1585 10.3535 3.42805C10.4345 3.74598 10.4615 4.07081 10.4142 4.40256C10.3535 4.83107 10.2589 5.25267 10.0428 5.6328C10.0428 5.63971 10.0428 5.64662 10.036 5.67427C10.1373 5.695 10.2319 5.70883 10.3265 5.72956C10.3602 5.72956 10.4007 5.73647 10.4345 5.74338C10.6169 5.78485 10.806 5.82632 10.9883 5.86088C11.1301 5.88852 11.272 5.90926 11.4138 5.9369C11.5016 5.95764 11.5894 5.98528 11.6772 6.01293C12.1702 6.17189 12.6565 6.36541 13.109 6.62114C13.4332 6.80083 13.7236 7.03582 13.9937 7.28464C14.3922 7.65785 14.6826 8.10019 14.8514 8.61854C14.9527 8.95029 15.0203 9.28896 15 9.64144C14.9865 9.90407 14.9663 10.1598 14.9325 10.4155C14.9122 10.5607 14.8582 10.6989 14.8177 10.844C14.7771 10.9892 14.7299 11.1412 14.6826 11.2864C14.5138 11.7978 14.2706 12.2609 13.9599 12.6963C13.656 13.1317 13.2981 13.5188 12.8861 13.8574C12.3863 14.2721 11.846 14.6039 11.2652 14.8734C11.0221 14.984 10.7722 15.0807 10.5223 15.1775C10.2724 15.2674 10.0293 15.3641 9.77265 15.4332C9.44171 15.5231 9.11078 15.5922 8.77985 15.6613C8.60425 15.7028 8.42866 15.7442 8.25306 15.765C7.98967 15.7995 7.73302 15.8203 7.46963 15.8548C7.38183 15.8687 7.29403 15.8963 7.19948 15.9032C7.03064 15.917 6.85504 15.9101 6.6862 15.9239C6.52411 15.9378 6.36877 15.9654 6.20669 15.9723C6.01083 15.9861 5.82172 15.9861 5.62587 15.9931C5.15986 15.9931 4.6871 15.9931 4.22109 15.9931C4.02524 15.9931 3.82938 15.9585 3.63352 15.9447C3.51195 15.9378 3.39039 15.9447 3.27557 15.9309C3.09998 15.917 2.91763 15.8963 2.74203 15.8825C2.57319 15.8687 2.39759 15.8687 2.22875 15.841C1.99912 15.8064 1.75599 15.7995 1.54662 15.682C1.22244 15.5093 0.999572 15.2535 0.898266 14.8803C0.803714 14.5347 0.837482 14.2099 0.97931 13.892C1.09412 13.6432 1.26972 13.4358 1.52636 13.3183C1.73573 13.2285 1.96535 13.2008 2.18823 13.2423C2.45837 13.2976 2.72852 13.2907 2.99867 13.3183C3.01893 13.3183 3.03919 13.3183 3.07972 13.3183V13.3322ZM5.55833 13.4427C5.78796 13.4427 5.99057 13.4427 6.19993 13.4427C6.25396 13.4427 6.30799 13.4358 6.36877 13.4289C6.52411 13.4151 6.6862 13.3944 6.84153 13.3805C7.09818 13.3529 7.36157 13.3391 7.61821 13.3045C7.86135 13.2699 8.11123 13.2285 8.35437 13.1663C8.71231 13.0764 9.07701 12.9935 9.42821 12.876C9.9685 12.6963 10.4885 12.4613 10.9748 12.1572C11.6637 11.7218 12.1432 11.1343 12.3256 10.3049C12.3998 9.96628 12.3661 9.65526 12.2445 9.34425C12.1027 8.99176 11.8528 8.74986 11.5354 8.57016C11.2044 8.38356 10.8465 8.30753 10.4818 8.2315C10.2859 8.19003 10.0833 8.18312 9.88746 8.14165C9.61056 8.08636 9.3269 8.07945 9.04324 8.08636C8.75959 8.10019 8.47593 8.05181 8.19228 8.12783C7.98967 8.18312 7.76679 8.12783 7.56418 8.20386C7.48314 8.2315 7.38183 8.21077 7.30079 8.23841C7.12519 8.29371 6.94959 8.2868 6.76724 8.29371C6.5106 8.29371 6.29448 8.20386 6.09863 8.03798C6.0581 8.00343 6.02434 7.97578 5.97706 7.93431C5.9568 8.1071 5.92303 8.25915 5.91628 8.4112C5.90277 8.5909 5.91628 8.76369 5.90277 8.94338C5.88251 9.22675 5.82848 9.50321 5.84874 9.79349C5.84874 9.83496 5.84874 9.87643 5.84198 9.92481C5.82172 10.1944 5.76094 10.4639 5.7812 10.7334C5.7812 10.7957 5.7812 10.8509 5.77445 10.9131C5.74743 11.1827 5.6934 11.4522 5.71366 11.7287C5.71366 11.7909 5.71366 11.8462 5.70016 11.9084C5.66639 12.1918 5.63262 12.4751 5.63937 12.7654C5.63937 12.8967 5.61911 13.028 5.6056 13.1594C5.5921 13.2561 5.57859 13.346 5.56508 13.4566L5.55833 13.4427ZM6.26072 2.74382C6.26747 2.84749 6.28773 2.9166 6.28098 2.99263C6.28098 3.14468 6.25396 3.28982 6.24721 3.44187C6.24045 3.6423 6.24045 3.83582 6.22695 4.03626C6.22019 4.18831 6.18642 4.34036 6.17967 4.49241C6.16616 4.67211 6.17292 4.85181 6.15941 5.0315C6.15266 5.18356 6.12564 5.33561 6.11213 5.48766C6.10538 5.60515 6.10538 5.71574 6.09863 5.83323C6.09863 5.8747 6.09863 5.90926 6.09863 5.95764C6.17292 5.91617 6.2337 5.88161 6.29448 5.84705C6.82127 5.54986 7.3278 5.23194 7.67224 4.70667C7.94239 4.29889 7.97616 3.76671 7.55743 3.38658C7.26702 3.12394 6.92258 2.95807 6.55788 2.83366C6.45657 2.79911 6.35527 2.77146 6.25396 2.74382H6.26072Z" fill="white"/>
</g>
<defs>
<clipPath id="clip0_14597_9193">
<rect width="15" height="16" fill="white"/>
</clipPath>
</defs>
</svg>
