<svg width="58" height="66" viewBox="0 0 58 66" fill="none" xmlns="http://www.w3.org/2000/svg">
<g id="learn-mobile 1">
<path id="Vector" d="M50.2368 22.7241V22.783C50.2368 26.0244 49.2048 29.1773 47.3763 31.8588C46.0639 33.7741 42.0382 39.4464 42.0382 39.4464C39.4282 43.719 38.2634 46.4005 38.8237 50.2754V58.4082C38.8237 59.6752 37.8063 60.6918 36.5382 60.6918C31.4213 61.6053 26.4225 61.7526 21.6449 60.6918C20.3768 60.6918 19.3594 59.6752 19.3594 58.4082V50.2754C19.3594 45.6639 19.1972 43.8368 15.5107 38.7981C15.5107 38.7981 11.4999 32.9784 10.394 31.1957C8.87518 28.7352 8.00518 25.9359 7.96094 23.0483C7.96094 22.8714 7.96094 22.6946 7.96094 22.5179C8.06416 11.0258 17.8258 1.47862 29.3422 1.61123C40.9029 1.74382 50.2368 11.1437 50.2368 22.7241Z" fill="#DD602E"/>
<path id="Vector_2" d="M26.0687 60.6771C27.676 61.0454 29.3127 61.2664 30.9643 61.34C27.7939 61.5316 24.6825 61.34 21.6598 60.6771C20.3917 60.6771 19.3594 59.6606 19.3594 58.4082V50.2754C19.3594 45.6785 19.212 43.8516 15.5255 38.8128C15.5255 38.8128 11.5147 32.9785 10.4087 31.1957C8.90466 28.75 8.00518 25.9359 7.99044 23.0629C7.96094 22.8714 7.96094 22.6946 7.96094 22.5179C8.0789 11.0258 17.8258 1.47862 29.357 1.61123C30.0205 1.61123 30.6694 1.65543 31.3329 1.71437C20.8929 2.84882 12.4879 11.8509 12.3552 22.5325C12.3552 22.7093 12.3552 22.8714 12.3847 23.0777C12.4141 25.9507 13.2989 28.7647 14.803 31.2105C15.9089 32.9932 19.9198 38.8276 19.9198 38.8276C23.6061 43.8664 23.7536 45.6934 23.7536 50.2902V58.4228C23.7536 59.69 24.7858 60.6918 26.0539 60.6918L26.0687 60.6771Z" fill="#D85A2E" stroke="#231F20" stroke-width="0.11" stroke-miterlimit="10"/>
<path id="Vector_3" d="M50.2516 22.7389V22.7831C50.2516 26.0244 49.2193 29.1921 47.3761 31.8588C46.0931 33.7889 42.053 39.4465 42.053 39.4465C39.4281 43.7192 38.2633 46.3859 38.8383 50.2755V58.4082C38.8383 59.6754 37.8209 60.6771 36.5674 60.6771C34.68 61.0013 32.8368 61.2518 30.9788 61.3402C29.3273 61.2665 27.6905 61.0454 26.0833 60.6771C24.8152 60.6771 23.783 59.6606 23.783 58.4082V50.2755C23.783 45.6787 23.6355 43.8518 19.9492 38.8129C19.9492 38.8129 15.9382 32.9785 14.8323 31.1957C13.3282 28.75 12.4288 25.936 12.414 23.0631C12.3845 22.8715 12.3845 22.6946 12.3845 22.5179C12.5025 11.8362 20.9223 2.8489 31.3623 1.69971C41.9792 2.83417 50.2662 11.8068 50.2662 22.7389H50.2516Z" fill="#F78F49" stroke="#231F20" stroke-width="0.11" stroke-miterlimit="10"/>
<path id="Vector_4" d="M27.8679 53.7524L28.3841 27.8513M28.3841 27.8513L28.2809 24.9193C28.2219 23.4901 26.4081 22.7389 24.9336 23.5787C24.8747 23.6081 24.8157 23.6376 24.7714 23.6817C23.2526 24.6836 23.5328 26.6137 25.199 27.0409L28.3841 27.8513ZM28.3841 27.8513L36.0224 27.2325L36.1109 24.2859C36.1552 22.7094 38.4554 21.678 39.7236 22.6946C39.7236 22.6946 39.7531 22.7094 39.7678 22.7241C40.6821 23.4901 40.3576 24.9046 39.1338 25.5529L36.0224 27.2177L36.3172 52.8537" stroke="white" stroke-width="0.75" stroke-linecap="round" stroke-linejoin="round"/>
<path id="Vector_5" d="M18.1946 51.2329V59.0858C18.1946 60.6033 18.9761 61.4285 20.7604 61.8409C22.8248 62.3418 24.9187 62.6071 27.0568 62.6955C27.1748 63.8299 28.0299 64.7286 29.1211 64.7286C30.2123 64.7286 31.0972 63.8152 31.1856 62.6512C33.2499 62.5188 35.3586 62.2388 37.4672 61.8409C38.8829 61.8409 40.033 60.6033 40.033 59.0858V51.2329H18.2094H18.1946Z" fill="#85A2B7" stroke="#231F20" stroke-width="0.11" stroke-miterlimit="10"/>
<path id="Vector_6" d="M40.3723 53.708H17.8409C17.4093 53.708 17.0593 54.0576 17.0593 54.4889V54.5332C17.0593 54.9644 17.4093 55.3141 17.8409 55.3141H40.3723C40.8039 55.3141 41.1538 54.9644 41.1538 54.5332V54.4889C41.1538 54.0576 40.8039 53.708 40.3723 53.708Z" fill="#E0E0E0" stroke="#231F20" stroke-width="0.11" stroke-miterlimit="10"/>
<path id="Vector_7" d="M40.3723 56.9937H17.8409C17.4093 56.9937 17.0593 57.3431 17.0593 57.7744V57.8187C17.0593 58.2499 17.4093 58.5995 17.8409 58.5995H40.3723C40.8039 58.5995 41.1538 58.2499 41.1538 57.8187V57.7744C41.1538 57.3431 40.8039 56.9937 40.3723 56.9937Z" fill="#E0E0E0" stroke="#231F20" stroke-width="0.11" stroke-miterlimit="10"/>
<g id="Group" style="mix-blend-mode:multiply" opacity="0.75">
<path id="Vector_8" d="M24.1816 51.2329H18.1947V53.7082H17.8409C17.4133 53.7082 17.0593 54.0617 17.0593 54.489V54.548C17.0593 54.9753 17.4133 55.3288 17.8409 55.3288H18.1947V57.0084H17.8409C17.4133 57.0084 17.0593 57.3621 17.0593 57.7893V57.8482C17.0593 58.2754 17.4133 58.6291 17.8409 58.6291H18.1947C18.1947 61.1191 19.3892 61.4579 19.3892 61.4579C22.6185 62.6512 26.9979 62.7396 26.9979 62.7396C27.0569 63.4764 27.4109 63.8447 27.4109 63.8447C28.7526 65.5095 30.2862 64.3898 30.2862 64.3898C28.1038 63.5794 28.8707 61.4726 28.8707 61.4726C23.6802 60.5149 24.1962 59.3363 24.1962 59.3363V51.2624L24.1816 51.2329Z" fill="#85A2B7"/>
</g>
<path id="Vector_9" d="M24.1816 51.2329H18.1947V53.7082H17.8409C17.4133 53.7082 17.0593 54.0617 17.0593 54.489V54.548C17.0593 54.9753 17.4133 55.3288 17.8409 55.3288H18.1947V57.0084H17.8409C17.4133 57.0084 17.0593 57.3621 17.0593 57.7893V57.8482C17.0593 58.2754 17.4133 58.6291 17.8409 58.6291H18.1947C18.1947 61.1191 19.3892 61.4579 19.3892 61.4579C22.6185 62.6512 26.9979 62.7396 26.9979 62.7396C27.0569 63.4764 27.4109 63.8447 27.4109 63.8447C28.7526 65.5095 30.2862 64.3898 30.2862 64.3898C28.1038 63.5794 28.8707 61.4726 28.8707 61.4726C23.6802 60.5149 24.1962 59.3363 24.1962 59.3363V51.2624L24.1816 51.2329Z" stroke="#231F20" stroke-width="0.11" stroke-miterlimit="10"/>
<path id="Vector_10" d="M40.3723 53.708H17.8409C17.4093 53.708 17.0593 54.0576 17.0593 54.4889V54.5332C17.0593 54.9644 17.4093 55.3141 17.8409 55.3141H40.3723C40.8039 55.3141 41.1538 54.9644 41.1538 54.5332V54.4889C41.1538 54.0576 40.8039 53.708 40.3723 53.708Z" stroke="#231F20" stroke-width="0.11" stroke-miterlimit="10"/>
<path id="Vector_11" d="M40.3723 56.9937H17.8409C17.4093 56.9937 17.0593 57.3431 17.0593 57.7744V57.8187C17.0593 58.2499 17.4093 58.5995 17.8409 58.5995H40.3723C40.8039 58.5995 41.1538 58.2499 41.1538 57.8187V57.7744C41.1538 57.3431 40.8039 56.9937 40.3723 56.9937Z" stroke="#231F20" stroke-width="0.11" stroke-miterlimit="10"/>
<path id="Vector_12" d="M45.5183 6.8122L47.6418 2.58374" stroke="#121D29" stroke-width="0.11" stroke-linecap="round" stroke-linejoin="round"/>
<path id="Vector_13" d="M6.26538 41.2586L9.67164 37.9583" stroke="#121D29" stroke-width="0.11" stroke-linecap="round" stroke-linejoin="round"/>
<path id="Vector_14" d="M1.22241 37.0743L5.26275 34.5991" stroke="#121D29" stroke-width="0.11" stroke-linecap="round" stroke-linejoin="round"/>
<path id="Vector_15" d="M48.3792 10.8786L56.74 5.38306" stroke="#121D29" stroke-width="0.11" stroke-linecap="round" stroke-linejoin="round"/>
<path id="Vector_16" d="M42.5397 11.1142C44.4714 13.3683 45.1643 15.9319 44.1027 16.8307C44.1027 16.8307 43.2474 14.4144 41.3157 12.1455C39.3841 9.89129 37.1279 8.65369 37.1279 8.65369C38.1897 7.75496 40.6079 8.84522 42.5397 11.0994V11.1142Z" fill="white" stroke="#121D29" stroke-width="0.12" stroke-linecap="round" stroke-linejoin="round"/>
</g>
</svg>
