<svg width="64" height="66" viewBox="0 0 64 66" fill="none" xmlns="http://www.w3.org/2000/svg">
<g id="2ec6a7d5-af15-4f4c-9837-299a2c1511c2 (1) 1">
<path id="Vector" d="M33.407 12.0331V22.3051H59.594C59.8203 22.3049 60.0372 22.2136 60.1973 22.0513C60.3573 21.889 60.4475 21.6689 60.448 21.4393V12.0331C60.476 10.6893 60.1103 9.36737 59.3973 8.23476C58.6843 7.10214 57.6561 6.20985 56.443 5.67095C55.638 5.31339 54.7716 5.12024 53.893 5.10254H26.853C27.7317 5.12075 28.5983 5.31446 29.4032 5.67262C30.2081 6.03078 30.9357 6.54636 31.5443 7.18994C32.1529 7.83351 32.6306 8.59247 32.9502 9.42346C33.2699 10.2545 33.4251 11.1412 33.407 12.0331Z" fill="#36A168"/>
<path id="Vector_2" d="M47.646 12.0331V17.23H21.187C20.9608 17.23 20.7438 17.1388 20.5838 16.9764C20.4239 16.8141 20.334 16.5938 20.334 16.3642V12.0331C20.3061 10.6893 20.6718 9.36737 21.3848 8.23476C22.0977 7.10214 23.1259 6.20985 24.339 5.67095C25.144 5.31326 26.0105 5.12011 26.889 5.10254H54.201C52.8774 5.12906 51.5914 5.55374 50.5058 6.32277C49.4203 7.09181 48.584 8.1706 48.103 9.42247C47.7831 10.2537 47.6278 11.1409 47.646 12.0331Z" fill="#CDE7D9"/>
<path id="Vector_3" d="M19.315 5.10176H47.645V59.8926C47.6454 59.9732 47.6234 60.0522 47.5817 60.1208C47.54 60.1893 47.4801 60.2446 47.409 60.2803C47.3381 60.3161 47.2587 60.3313 47.1798 60.3241C47.1009 60.3169 47.0255 60.2877 46.962 60.2397L42.327 56.6527C42.1786 56.5378 41.9971 56.4756 41.8105 56.4756C41.6239 56.4756 41.4424 56.5378 41.294 56.6527L36.497 60.3697C36.3486 60.4841 36.1674 60.5461 35.981 60.5461C35.7946 60.5461 35.6134 60.4841 35.465 60.3697L30.668 56.6527C30.5184 56.5364 30.3353 56.4735 30.147 56.4735C29.9586 56.4735 29.7755 56.5364 29.626 56.6527L24.829 60.3697C24.6806 60.4841 24.4994 60.5461 24.313 60.5461C24.1266 60.5461 23.9454 60.4841 23.797 60.3697L19 56.6527C18.8514 56.5383 18.67 56.4764 18.4835 56.4764C18.297 56.4764 18.1156 56.5383 17.967 56.6527L13.332 60.2397C13.2687 60.2884 13.1933 60.318 13.1142 60.3255C13.0352 60.3329 12.9557 60.3177 12.8847 60.2818C12.8137 60.2458 12.754 60.1904 12.7123 60.1218C12.6707 60.0532 12.6488 59.9742 12.649 59.8936V11.7552C12.6651 9.97612 13.3761 8.27622 14.6259 7.02875C15.8757 5.78129 17.5622 5.08824 19.315 5.10176Z" fill="#CDE7D9"/>
<g id="Vector_4" style="mix-blend-mode:multiply">
<path d="M27.55 19.312H5.54999C5.01956 19.312 4.51085 19.5259 4.13577 19.9066C3.7607 20.2873 3.54999 20.8037 3.54999 21.3421V39.6125C3.54999 40.1509 3.7607 40.6672 4.13577 41.0479C4.51085 41.4286 5.01956 41.6425 5.54999 41.6425H27.55V19.312ZM27.55 44.6876V16.267C27.55 15.9978 27.6553 15.7396 27.8429 15.5492C28.0304 15.3589 28.2848 15.252 28.55 15.252C28.8152 15.252 29.0696 15.3589 29.2571 15.5492C29.4446 15.7396 29.55 15.9978 29.55 16.267V44.6876C29.55 44.9568 29.4446 45.215 29.2571 45.4053C29.0696 45.5957 28.8152 45.7026 28.55 45.7026C28.2848 45.7026 28.0304 45.5957 27.8429 45.4053C27.6553 45.215 27.55 44.9568 27.55 44.6876Z" fill="#1275E5"/>
</g>
<path id="Vector_5" d="M17.89 23.3721H7.54999V25.0164H10.81C12.33 25.0164 13.29 25.7675 13.55 27.0058H7.54999V28.4472H13.55C13.29 29.6855 12.31 30.4163 10.81 30.4163H7.54999V32.0607H11.01L13.91 37.5824H16.01L12.89 31.7967C14.29 31.2892 15.23 30.0509 15.45 28.4472H17.89V27.0058H15.45C15.33 26.1329 14.99 25.4021 14.39 24.8134H17.89V23.3721Z" fill="#CCE4FF"/>
</g>
</svg>
