<svg width="104" height="104" viewBox="0 0 104 104" fill="none" xmlns="http://www.w3.org/2000/svg">
<g id="stick-svgrepo-com 1">
<g id="Group">
<g id="Group_2">
<path id="Vector" d="M52 8.125C27.768 8.125 8.125 27.768 8.125 52C8.125 76.232 27.768 95.875 52 95.875C76.232 95.875 95.875 76.232 95.875 52C95.875 27.768 76.232 8.125 52 8.125ZM52 69.875C42.1265 69.875 34.125 61.8735 34.125 52C34.125 42.1265 42.1265 34.125 52 34.125C61.8735 34.125 69.875 42.1265 69.875 52C69.875 61.8735 61.8735 69.875 52 69.875Z" fill="#A3AEB5"/>
</g>
<g id="Group_3">
<g id="Group_4">
<path id="Vector_2" d="M52 74.75C39.455 74.75 29.25 64.545 29.25 52C29.25 39.455 39.455 29.25 52 29.25C64.545 29.25 74.75 39.455 74.75 52C74.75 64.545 64.545 74.75 52 74.75ZM52 34.125C42.1427 34.125 34.125 42.1427 34.125 52C34.125 61.8573 42.1427 69.875 52 69.875C61.8573 69.875 69.875 61.8573 69.875 52C69.875 42.1427 61.8573 34.125 52 34.125Z" fill="#DBD2C1"/>
</g>
</g>
<path id="Vector_3" d="M71.5 52C71.5 41.249 62.751 32.5 52 32.5C41.249 32.5 32.5 41.249 32.5 52C32.5 62.751 41.249 71.5 52 71.5C62.751 71.5 71.5 62.751 71.5 52ZM35.75 52C35.75 43.0267 43.0267 35.75 52 35.75C60.9733 35.75 68.25 43.0267 68.25 52C68.25 60.9733 60.9733 68.25 52 68.25C43.0267 68.25 35.75 60.9733 35.75 52ZM97.5 52C97.5 26.871 77.129 6.5 52 6.5C26.871 6.5 6.5 26.871 6.5 52C6.5 77.129 26.871 97.5 52 97.5H97.5V94.25H68.822C85.6148 87.5583 97.5 71.1815 97.5 52ZM9.75 52C9.75 28.704 28.704 9.75 52 9.75C75.296 9.75 94.25 28.704 94.25 52C94.25 75.296 75.296 94.25 52 94.25C28.704 94.25 9.75 75.296 9.75 52Z" fill="#231F20"/>
</g>
</g>
</svg>
