<svg width="51" height="45" viewBox="0 0 51 45" fill="none" xmlns="http://www.w3.org/2000/svg">
<g id="Value Deals">
<g id="Group">
<g id="b">
<path id="Vector" d="M7.91828 31.2791L4.52905 36.7424C5.24798 37.3972 5.96691 38.052 6.68583 38.6863C7.89774 39.7913 9.0891 40.9167 10.3215 41.9807C11.3691 42.8811 12.6016 43.454 13.9983 43.6586C16.5865 44.0269 19.1541 44.3952 21.7422 44.7431C22.0092 44.784 22.2763 44.7226 22.5433 44.7022L22.7487 44.3748C22.7487 44.252 22.7076 44.1292 22.7076 44.0269C22.7076 42.5741 21.9887 41.5306 20.5919 41.1008C19.2157 40.6711 17.8189 40.3028 16.3811 39.8936C16.3811 39.8322 16.1962 40.5279 15.6416 40.9576C15.1692 41.2236 14.7378 41.2032 14.2859 40.9167C12.7248 39.955 11.1637 39.0137 9.62316 38.0315C9.41775 37.9088 9.21235 37.5814 9.21235 37.3563C9.21235 36.9675 9.6437 36.8857 10.0956 37.1517C11.5335 38.0315 12.9508 38.9114 14.3886 39.7913L15.0048 40.1801C16.0319 40.3847 16.9768 38.1338 15.2513 37.2335C15.0048 37.1107 14.7994 36.9266 14.5529 36.8038C13.4643 36.2309 12.581 35.4533 11.9648 34.3484C11.0816 32.7932 9.6437 31.8315 7.93882 31.2791H7.91828Z" fill="#BEBEBE"/>
</g>
<path id="Vector_2" d="M0.173534 33.8985C-0.114037 34.3487 -0.0524146 34.6556 0.420023 34.9421C1.15949 35.3718 1.89896 35.822 2.61788 36.2926C3.06978 36.5995 3.46006 36.6609 3.82979 36.1085L4.71304 34.6966L6.33576 32.1183L7.05469 30.9725C7.40388 30.3586 7.11631 30.0108 6.58225 29.7243C5.86332 29.3355 5.18548 28.8853 4.48709 28.4352C4.0352 28.1487 3.72709 28.2306 3.43951 28.6807C2.3714 30.4405 1.28273 32.1797 0.194075 33.919L0.173534 33.8985Z" fill="#BEBEBE"/>
</g>
<g id="Group_2">
<g id="c">
<path id="Vector_3" d="M43.0826 14.0891L46.4719 8.62577C45.7529 7.97098 45.034 7.31619 44.3151 6.68187C43.1032 5.57692 41.9118 4.4515 40.6794 3.38747C39.6318 2.48714 38.3993 1.91421 37.0026 1.70958C34.4144 1.34127 31.8468 0.97295 29.2587 0.625094C28.9917 0.58417 28.7246 0.645556 28.4576 0.666019L28.2522 0.993412C28.2522 1.11618 28.2933 1.23896 28.2933 1.34127C28.2933 2.79407 29.0122 3.83764 30.409 4.26734C31.7852 4.69705 33.182 5.06536 34.6198 5.47461C34.6198 5.53599 34.8047 4.84028 35.3593 4.41058C35.8317 4.14457 36.2631 4.16503 36.715 4.4515C38.2761 5.41322 39.8372 6.35448 41.3777 7.33666C41.5831 7.45943 41.7886 7.78682 41.7886 8.0119C41.7886 8.40068 41.3572 8.48253 40.9053 8.21652C39.4675 7.33666 38.0501 6.45679 36.6123 5.57692L35.9961 5.18814C34.969 4.98352 34.0242 7.23434 35.7496 8.13468C37.475 9.03501 36.2015 8.44161 36.448 8.56438C37.5366 9.13732 38.4199 9.91488 39.0361 11.0198C39.9193 12.5749 41.3572 13.5367 43.0621 14.0891H43.0826Z" fill="#BEBEBE"/>
</g>
<path id="Vector_4" d="M50.8269 11.4499C51.1145 10.9997 51.0528 10.6928 50.5804 10.4063C49.8409 9.97663 49.1015 9.52646 48.3825 9.05583C47.9306 8.7489 47.5404 8.68752 47.1706 9.23999L46.2874 10.6519L44.6647 13.2301L43.9457 14.376C43.5965 14.9898 43.8841 15.3377 44.4182 15.6242C45.1371 16.0129 45.8149 16.4631 46.5133 16.9133C46.9652 17.1997 47.2733 17.1179 47.5609 16.6677C48.629 14.908 49.7177 13.1687 50.8064 11.4294L50.8269 11.4499Z" fill="#BEBEBE"/>
</g>
<path id="Vector_5" d="M28.91 40.3423C28.684 40.24 28.4992 40.0558 28.3143 39.8717C23.4872 35.1654 18.6807 30.4387 13.9358 25.671C13.7509 25.4868 13.5866 25.3027 13.566 25.0162C13.566 24.7707 13.6687 24.5865 13.8331 24.4228C16.2569 22.0083 18.6807 19.5938 21.1045 17.1588C21.3099 16.9542 21.5359 16.8723 21.8234 16.8723C26.671 16.8723 31.4981 16.8723 36.3457 16.8723C36.6539 16.8723 36.9003 16.9542 37.1263 17.1792C39.5501 19.5938 41.9739 22.0083 44.3977 24.4433C44.7264 24.7707 44.7264 25.1595 44.4183 25.5073C44.3772 25.5482 44.3361 25.5892 44.295 25.6505C41.7274 28.2083 39.1598 30.7865 36.5717 33.3238C34.3327 35.5337 32.0938 37.7232 29.8549 39.9126C29.6905 40.0763 29.5057 40.2195 29.3003 40.3423H28.9305H28.91Z" fill="#494949"/>
<g id="Group_3">
<path id="Vector_6" d="M35.4427 25.5667C31.2524 25.5667 27.0826 25.5667 22.8923 25.5667C22.8101 25.5667 22.7074 25.5258 22.6252 25.6281C24.8026 29.9251 26.9799 34.2221 29.1777 38.5806C29.2599 38.4578 29.301 38.3759 29.3421 38.2941C31.4372 34.1403 33.5324 30.0069 35.6275 25.8736C35.7713 25.5871 35.7713 25.5667 35.4221 25.5667H35.4427ZM34.087 26.7944C32.5053 29.9251 30.9237 33.0558 29.3215 36.1865C29.3215 36.2274 29.2805 36.2479 29.2188 36.3297C29.5269 33.8129 29.8351 31.3779 30.1432 28.9225C30.2253 28.2267 30.328 27.531 30.4102 26.8149C30.4307 26.5898 30.5129 26.5284 30.7388 26.5284C31.807 26.5284 32.8751 26.5284 33.9432 26.5284C34.1486 26.5284 34.1897 26.5693 34.087 26.7739V26.7944Z" fill="#D9D9D9"/>
<path id="Vector_7" d="M35.2786 24.4842C33.3067 22.5199 31.3348 20.535 29.3628 18.5707C29.1985 18.407 29.1164 18.4888 28.9931 18.6116C27.0828 20.535 25.152 22.4585 23.2417 24.3819C23.1801 24.4433 23.0979 24.4638 23.1185 24.5865H35.3402C35.2991 24.5251 35.2991 24.5047 35.2786 24.5047V24.4842ZM30.5953 23.6043C30.4926 23.6043 30.431 23.5634 30.3899 23.4611C30.0201 22.2948 29.6299 21.108 29.2601 19.9621C30.472 21.1694 31.6839 22.3766 32.9369 23.6043C32.1358 23.6043 31.3758 23.6043 30.5953 23.6043Z" fill="#D9D9D9"/>
<path id="Vector_8" d="M26.7952 36.3312C23.1184 32.7708 19.5032 29.149 15.8264 25.4863H16.1551C17.7983 25.4863 19.4621 25.4863 21.1054 25.4863C21.3108 25.4863 21.4135 25.5477 21.4957 25.7319C23.2211 29.1695 24.9671 32.5867 26.713 36.0243C26.7541 36.1061 26.8363 36.188 26.7746 36.3312H26.7952Z" fill="#D9D9D9"/>
<path id="Vector_9" d="M41.9958 25.4863C40.3731 25.4863 38.7298 25.4863 37.0866 25.4863C36.8606 25.4863 36.7374 25.5682 36.6552 25.7728C35.7309 27.6144 34.8066 29.4355 33.8822 31.2771C33.0401 32.9345 32.1979 34.6124 31.3557 36.2698C31.3557 36.2698 31.3968 36.3108 31.4173 36.3312C35.0941 32.7913 38.6888 29.1695 42.2834 25.5068H42.0164L41.9958 25.4863ZM34.9298 31.4817C34.9298 31.4817 34.9298 31.4817 34.9298 31.4613C34.9298 31.4613 34.9298 31.4613 34.9298 31.4817C34.9298 31.5022 34.9298 31.4817 34.9298 31.4817ZM34.9709 31.3589C34.9298 31.2771 35.0325 31.1952 35.0736 31.1134C35.8131 29.6401 36.5525 28.1873 37.292 26.7141C37.3742 26.5299 37.4769 26.4685 37.6823 26.4685C38.4217 26.4685 39.1612 26.4685 39.8801 26.4685C38.2369 28.1055 36.5936 29.7424 34.9709 31.3589Z" fill="#D9D9D9"/>
<path id="Vector_10" d="M22.1942 23.622C22.1942 22.558 22.1942 21.3507 22.1942 20.1435C22.1942 19.6319 22.1942 19.0999 22.1942 18.5884C22.1942 18.4247 22.2353 18.3633 22.4202 18.3633C24.125 18.3633 25.8299 18.3633 27.5348 18.3633C27.5348 18.3633 27.5759 18.3633 27.5964 18.3837C25.7888 20.1435 23.9607 21.9237 22.2148 23.622H22.1942Z" fill="#D9D9D9"/>
<path id="Vector_11" d="M21.208 19.2656C21.208 20.6366 21.208 22.028 21.208 23.4194C21.208 23.7264 21.208 24.0128 21.208 24.3198C21.208 24.4425 21.1875 24.5039 21.0437 24.5039C19.3388 24.5039 17.6545 24.5039 15.9496 24.5039L21.208 19.2861V19.2656Z" fill="#D9D9D9"/>
<path id="Vector_12" d="M36.0179 18.5491C36.0179 18.3445 35.8946 18.3445 35.7508 18.3445C34.1076 18.3445 32.4438 18.3445 30.8005 18.3445C30.7389 18.3445 30.6567 18.3036 30.5951 18.4059C32.4027 20.1656 34.2103 21.9458 35.9973 23.7056C35.9973 22.0072 35.9973 20.2679 35.9973 18.5287L36.0179 18.5491ZM35.0319 21.3729C34.3541 20.6976 33.6762 20.0224 32.9573 19.3267C33.4503 19.3267 33.9432 19.3267 34.4157 19.3267C34.8128 19.3267 35.0114 19.5245 35.0114 19.9201V21.3729H35.0319Z" fill="#D9D9D9"/>
<path id="Vector_13" d="M36.9834 19.2241C36.9834 20.9429 36.9834 22.6208 36.9834 24.2987C36.9834 24.5443 37.1478 24.4829 37.271 24.4829C38.8732 24.4829 40.4959 24.4829 42.0981 24.4829C42.1597 24.4829 42.2213 24.5033 42.2419 24.4624C40.4959 22.7231 38.7499 20.9839 36.9629 19.2241H36.9834ZM38.1337 23.5212C37.9899 23.5212 37.9694 23.4393 37.9694 23.337C37.9694 22.7641 37.9694 22.1911 37.9694 21.6182C38.6062 22.2525 39.2429 22.8868 39.8797 23.5212C39.3045 23.5212 38.7089 23.5212 38.1132 23.5212H38.1337Z" fill="#D9D9D9"/>
</g>
<g id="Group_4">
<path id="Vector_14" d="M34.0662 26.7936C32.4845 29.9243 30.9029 33.055 29.3007 36.1857C29.3007 36.2266 29.2596 36.2471 29.198 36.3289C29.5061 33.8121 29.8142 31.3771 30.1223 28.9216C30.2045 28.2259 30.3072 27.5302 30.3894 26.8141C30.4099 26.589 30.4921 26.5276 30.718 26.5276C31.7861 26.5276 32.8543 26.5276 33.9224 26.5276C34.1278 26.5276 34.1689 26.5685 34.0662 26.7731V26.7936Z" fill="#BEBEBE"/>
<path id="Vector_15" d="M32.9363 23.601C32.1352 23.601 31.3752 23.601 30.5947 23.601C30.492 23.601 30.4303 23.5601 30.3893 23.4578C30.0195 22.2914 29.6293 21.1046 29.2595 19.9587C30.4714 21.166 31.6833 22.3733 32.9363 23.601Z" fill="#BEBEBE"/>
<path id="Vector_16" d="M39.8787 26.468C38.2355 28.105 36.5922 29.7419 34.9695 31.3585C34.9284 31.2766 35.0311 31.1948 35.0722 31.1129C35.8117 29.6396 36.5511 28.1868 37.2906 26.7136C37.3727 26.5294 37.4755 26.468 37.6809 26.468C38.4203 26.468 39.1598 26.468 39.8787 26.468Z" fill="#BEBEBE"/>
<path id="Vector_17" d="M35.0116 19.9188V21.3716C34.3338 20.6964 33.6559 20.0211 32.937 19.3254C33.43 19.3254 33.923 19.3254 34.3954 19.3254C34.7925 19.3254 34.9911 19.5232 34.9911 19.9188H35.0116Z" fill="#BEBEBE"/>
<path id="Vector_18" d="M39.8999 23.5197C39.3248 23.5197 38.7291 23.5197 38.1334 23.5197C37.9897 23.5197 37.9691 23.4378 37.9691 23.3355C37.9691 22.7626 37.9691 22.1896 37.9691 21.6167C38.6059 22.251 39.2426 22.8853 39.8794 23.5197H39.8999Z" fill="#BEBEBE"/>
</g>
<g id="Group_5">
<path id="Vector_19" d="M21.1658 14.1704C19.7896 14.5796 18.8036 15.8482 18.8036 17.3624C18.8036 15.8687 17.7971 14.6001 16.4414 14.1704C17.8176 13.7611 18.8036 12.4925 18.8036 10.9783C18.8036 12.472 19.8101 13.7407 21.1658 14.1704Z" fill="#BEBEBE"/>
<path id="Vector_20" d="M26.4246 16.2366C25.5414 16.5026 24.8841 17.3415 24.8841 18.3033C24.8841 17.3211 24.2268 16.5026 23.3435 16.2366C24.2268 15.9706 24.8841 15.1316 24.8841 14.1699C24.8841 15.1521 25.5414 15.9706 26.4246 16.2366Z" fill="#BEBEBE"/>
<path id="Vector_21" d="M16.4209 19.6544C15.0857 20.0637 14.0998 21.3119 14.0998 22.7647C14.0998 21.2914 13.1344 20.0637 11.7787 19.6544C13.1138 19.2452 14.0998 17.997 14.0998 16.5442C14.0998 18.0175 15.0652 19.2452 16.4209 19.6544Z" fill="#BEBEBE"/>
</g>
</g>
</svg>
