<svg width="41" height="46" viewBox="0 0 41 46" fill="none" xmlns="http://www.w3.org/2000/svg">
<g id="Value Deals">
<g id="Group">
<path id="Vector" d="M34.821 12.3923L33.461 11.2766C32.781 10.7187 32.441 9.862 32.561 9.00528L32.801 7.27192C33.021 5.75772 31.821 4.40291 30.2809 4.42284H28.5209C27.6409 4.44276 26.8409 4.00444 26.3609 3.26727L25.4209 1.79291C24.6009 0.497877 22.8208 0.218945 21.6608 1.21513L20.3208 2.35078C19.6608 2.90864 18.7408 3.10788 17.9208 2.82894L16.2607 2.29101C14.8007 1.81284 13.2607 2.74925 13.0207 4.26345L12.7407 5.99681C12.6007 6.85352 12.0207 7.57078 11.2007 7.90948L9.58065 8.56696C8.16063 9.14474 7.58063 10.8383 8.36064 12.1532L9.26065 13.6475C9.70065 14.4046 9.72065 15.3211 9.32065 16.0981L8.50064 17.6322C7.78063 18.987 8.44064 20.6606 9.88066 21.1587L11.5407 21.7365C12.3607 22.0354 12.9807 22.7128 13.1607 23.5695L13.5207 25.2829C13.8407 26.7772 15.4207 27.6339 16.8608 27.096L18.5008 26.4783C19.3208 26.1795 20.2408 26.3189 20.9208 26.837L22.3008 27.9128C23.5208 28.8492 25.2809 28.4906 26.0409 27.1757L26.9009 25.6615C27.3209 24.9044 28.1209 24.4262 29.0009 24.3863L30.7609 24.3266C32.301 24.2668 33.421 22.8721 33.141 21.3779L32.821 19.6644C32.661 18.8077 32.961 17.9311 33.601 17.3533L34.901 16.1778C36.041 15.1617 36.001 13.3686 34.821 12.3923ZM21.8808 23.3902C16.9808 23.3902 13.0007 19.4254 13.0007 14.5441C13.0007 9.66276 16.9808 5.69795 21.8808 5.69795C26.7809 5.69795 30.7609 9.66276 30.7609 14.5441C30.7609 19.4254 26.7809 23.3902 21.8808 23.3902Z" fill="#D9D9D9"/>
<path id="Vector_2" d="M24.7137 21.2949C28.4589 19.7495 30.2375 15.4722 28.6861 11.7413C27.1348 8.01042 22.8411 6.23871 19.0958 7.7841C15.3506 9.32949 13.5721 13.6068 15.1234 17.3377C16.6747 21.0686 20.9684 22.8403 24.7137 21.2949Z" fill="#454545"/>
<path id="Vector_3" d="M24.4806 11.1778H22.4405C22.8005 11.4568 23.0605 11.8752 23.1405 12.433H24.5006V13.0507H23.1605C23.0405 14.3059 22.0205 15.1227 20.4405 15.1626C21.4005 16.1588 22.4605 17.4339 23.5005 18.709H22.3005C21.3405 17.5534 20.4205 16.4775 19.2605 15.2223V14.4453H19.9405C21.2805 14.4453 22.0005 13.8875 22.0805 13.0307H19.2405V12.4131H22.0405C21.8605 11.6959 21.2005 11.3372 20.1205 11.3372H19.2405V10.5403H24.4806V11.1579V11.1778Z" fill="#DBDBDB"/>
</g>
<g id="Group_2">
<g id="b">
<path id="Vector_4" d="M24.0403 33.6082C22.1603 34.6243 20.2803 34.963 18.2203 34.8235C17.7602 34.8036 17.3202 34.8634 16.8602 34.8235C13.6202 34.6043 13.0002 38.5891 14.6202 39.2067H15.8202C18.6003 39.2067 21.4003 39.2067 24.1803 39.2067C25.0603 39.2067 25.6004 39.7247 25.2603 40.2627C25.0603 40.5814 24.5003 40.8405 24.0803 40.8604C21.0403 40.9002 18.0202 40.8803 14.9802 40.8803C14.1002 40.8803 13.4602 40.5416 13.0202 39.7447C12.6202 38.6488 12.9602 37.5132 12.9202 37.6128C10.5401 36.9354 8.24011 36.2381 5.92008 35.6404C3.58005 35.0427 1.64002 35.8994 0.360005 37.9316C0.260004 38.091 0.120002 38.2504 0 38.4098V39.0274C0.360005 39.2864 0.70001 39.6052 1.10002 39.7845C5.04007 41.5179 9.00012 43.2512 12.9602 44.9647C15.1002 45.9011 17.3402 46.18 19.6203 45.8014C22.3003 45.383 24.9603 44.8252 27.6404 44.3271C29.2204 44.0282 30.8004 43.7493 32.4004 43.4505V32.7913C29.5204 32.1139 26.6804 32.1936 24.0603 33.6281L24.0403 33.6082Z" fill="#D9D9D9"/>
</g>
<path id="Vector_5" d="M41 32.9907C41 32.114 40.62 31.7355 39.74 31.7355C38.3799 31.7554 37.0199 31.7952 35.6599 31.7355C34.6399 31.6757 33.9399 31.9148 33.8799 33.0903V35.3416V40.3823V43.1517C33.9199 44.2475 34.5199 44.4866 35.4199 44.4468C36.8399 44.387 38.2799 44.4069 39.7 44.4468C40.6 44.4667 40.96 44.0682 40.96 43.1916C40.96 39.7846 40.96 36.3777 40.96 32.9707L41 32.9907Z" fill="#D9D9D9"/>
</g>
</g>
</svg>
